<mxfile host="app.diagrams.net" agent="Mozilla/5.0 (Windows NT 10.0; Win64; x64) AppleWebKit/537.36 (KHTML, like Gecko) Chrome/129.0.0.0 Safari/537.36 Edg/129.0.0.0" version="24.7.16">
  <diagram id="R2lEEEUBdFMjLlhIrx00" name="Page-1">
    <mxGraphModel dx="5309" dy="3769" grid="1" gridSize="10" guides="1" tooltips="1" connect="1" arrows="1" fold="1" page="1" pageScale="1" pageWidth="850" pageHeight="1100" math="0" shadow="0" extFonts="Permanent Marker^https://fonts.googleapis.com/css?family=Permanent+Marker">
      <root>
        <mxCell id="0" />
        <mxCell id="1" parent="0" />
        <mxCell id="hqlPJ9sTbHjb_ISFIXqj-35" value="Departamento" style="whiteSpace=wrap;html=1;align=center;" parent="1" vertex="1">
          <mxGeometry x="230" y="-630" width="100" height="40" as="geometry" />
        </mxCell>
        <mxCell id="hqlPJ9sTbHjb_ISFIXqj-36" value="Codigo" style="ellipse;whiteSpace=wrap;html=1;align=center;" parent="1" vertex="1">
          <mxGeometry x="150" y="-540" width="120" height="40" as="geometry" />
        </mxCell>
        <mxCell id="hqlPJ9sTbHjb_ISFIXqj-37" value="Nombre" style="ellipse;whiteSpace=wrap;html=1;align=center;" parent="1" vertex="1">
          <mxGeometry x="315" y="-547.5" width="120" height="37.5" as="geometry" />
        </mxCell>
        <mxCell id="hqlPJ9sTbHjb_ISFIXqj-38" value="" style="endArrow=none;html=1;rounded=0;entryX=0.574;entryY=0.055;entryDx=0;entryDy=0;exitX=0;exitY=1;exitDx=0;exitDy=0;entryPerimeter=0;" parent="1" target="hqlPJ9sTbHjb_ISFIXqj-36" edge="1">
          <mxGeometry relative="1" as="geometry">
            <mxPoint x="235" y="-590" as="sourcePoint" />
            <mxPoint x="170" y="-560" as="targetPoint" />
          </mxGeometry>
        </mxCell>
        <mxCell id="hqlPJ9sTbHjb_ISFIXqj-39" value="" style="endArrow=none;html=1;rounded=0;exitX=1;exitY=1;exitDx=0;exitDy=0;entryX=0.5;entryY=0;entryDx=0;entryDy=0;" parent="1" source="hqlPJ9sTbHjb_ISFIXqj-35" target="hqlPJ9sTbHjb_ISFIXqj-37" edge="1">
          <mxGeometry relative="1" as="geometry">
            <mxPoint x="286" y="-577.5" as="sourcePoint" />
            <mxPoint x="370" y="-547.5" as="targetPoint" />
          </mxGeometry>
        </mxCell>
        <mxCell id="hqlPJ9sTbHjb_ISFIXqj-40" value="Usuario/&lt;div&gt;Empleado&lt;/div&gt;" style="whiteSpace=wrap;html=1;align=center;" parent="1" vertex="1">
          <mxGeometry x="230" y="-243.5" width="100" height="40" as="geometry" />
        </mxCell>
        <mxCell id="hqlPJ9sTbHjb_ISFIXqj-41" value="Cedula" style="ellipse;whiteSpace=wrap;html=1;align=center;" parent="1" vertex="1">
          <mxGeometry x="45" y="-52.75" width="100" height="40" as="geometry" />
        </mxCell>
        <mxCell id="hqlPJ9sTbHjb_ISFIXqj-43" value="Nombre&lt;div&gt;Completo&lt;/div&gt;" style="ellipse;whiteSpace=wrap;html=1;align=center;" parent="1" vertex="1">
          <mxGeometry x="75" y="-7" width="100" height="40" as="geometry" />
        </mxCell>
        <mxCell id="hqlPJ9sTbHjb_ISFIXqj-44" value="Genero" style="ellipse;whiteSpace=wrap;html=1;align=center;" parent="1" vertex="1">
          <mxGeometry x="40" y="-112.5" width="100" height="40" as="geometry" />
        </mxCell>
        <mxCell id="hqlPJ9sTbHjb_ISFIXqj-45" value="FechaNacimiento" style="ellipse;whiteSpace=wrap;html=1;align=center;" parent="1" vertex="1">
          <mxGeometry x="390" y="-118.5" width="100" height="40" as="geometry" />
        </mxCell>
        <mxCell id="hqlPJ9sTbHjb_ISFIXqj-46" value="Edad" style="ellipse;whiteSpace=wrap;html=1;align=center;dashed=1;" parent="1" vertex="1">
          <mxGeometry x="570" y="-72.5" width="100" height="40" as="geometry" />
        </mxCell>
        <mxCell id="hqlPJ9sTbHjb_ISFIXqj-47" value="Lugar&lt;div&gt;Residencia&lt;/div&gt;" style="ellipse;whiteSpace=wrap;html=1;align=center;" parent="1" vertex="1">
          <mxGeometry x="470" y="-150" width="100" height="40" as="geometry" />
        </mxCell>
        <mxCell id="hqlPJ9sTbHjb_ISFIXqj-48" value="telefono" style="ellipse;whiteSpace=wrap;html=1;align=center;" parent="1" vertex="1">
          <mxGeometry x="440" y="-203.5" width="100" height="40" as="geometry" />
        </mxCell>
        <mxCell id="hqlPJ9sTbHjb_ISFIXqj-49" value="FechaIngreso" style="ellipse;whiteSpace=wrap;html=1;align=center;" parent="1" vertex="1">
          <mxGeometry x="45" y="-220" width="100" height="40" as="geometry" />
        </mxCell>
        <mxCell id="hqlPJ9sTbHjb_ISFIXqj-50" value="Salario&lt;div&gt;Actual&lt;/div&gt;" style="ellipse;whiteSpace=wrap;html=1;align=center;" parent="1" vertex="1">
          <mxGeometry x="400" y="-333.5" width="100" height="40" as="geometry" />
        </mxCell>
        <mxCell id="hqlPJ9sTbHjb_ISFIXqj-51" value="&lt;div&gt;Puesto&lt;/div&gt;&lt;div&gt;Actual&lt;/div&gt;" style="ellipse;whiteSpace=wrap;html=1;align=center;" parent="1" vertex="1">
          <mxGeometry x="440" y="-273.5" width="100" height="40" as="geometry" />
        </mxCell>
        <mxCell id="hqlPJ9sTbHjb_ISFIXqj-52" value="&lt;div&gt;Departamento&lt;/div&gt;&lt;div&gt;Actual&lt;/div&gt;" style="ellipse;whiteSpace=wrap;html=1;align=center;" parent="1" vertex="1">
          <mxGeometry x="45" y="-163.5" width="100" height="40" as="geometry" />
        </mxCell>
        <mxCell id="hqlPJ9sTbHjb_ISFIXqj-53" value="" style="endArrow=none;html=1;rounded=0;entryX=0;entryY=0.25;entryDx=0;entryDy=0;exitX=1;exitY=0.5;exitDx=0;exitDy=0;" parent="1" source="hqlPJ9sTbHjb_ISFIXqj-49" target="hqlPJ9sTbHjb_ISFIXqj-40" edge="1">
          <mxGeometry relative="1" as="geometry">
            <mxPoint x="150" y="-293.5" as="sourcePoint" />
            <mxPoint x="310" y="-293.5" as="targetPoint" />
          </mxGeometry>
        </mxCell>
        <mxCell id="hqlPJ9sTbHjb_ISFIXqj-54" value="" style="endArrow=none;html=1;rounded=0;entryX=0;entryY=0.5;entryDx=0;entryDy=0;" parent="1" source="hqlPJ9sTbHjb_ISFIXqj-52" target="hqlPJ9sTbHjb_ISFIXqj-40" edge="1">
          <mxGeometry relative="1" as="geometry">
            <mxPoint x="130" y="-313.5" as="sourcePoint" />
            <mxPoint x="230" y="-233.5" as="targetPoint" />
          </mxGeometry>
        </mxCell>
        <mxCell id="hqlPJ9sTbHjb_ISFIXqj-55" value="" style="endArrow=none;html=1;rounded=0;entryX=0;entryY=0.75;entryDx=0;entryDy=0;exitX=1;exitY=0;exitDx=0;exitDy=0;" parent="1" source="hqlPJ9sTbHjb_ISFIXqj-44" target="hqlPJ9sTbHjb_ISFIXqj-40" edge="1">
          <mxGeometry relative="1" as="geometry">
            <mxPoint x="122" y="-253.5" as="sourcePoint" />
            <mxPoint x="230" y="-224.5" as="targetPoint" />
          </mxGeometry>
        </mxCell>
        <mxCell id="hqlPJ9sTbHjb_ISFIXqj-56" value="" style="endArrow=none;html=1;rounded=0;entryX=0;entryY=1;entryDx=0;entryDy=0;exitX=1;exitY=0;exitDx=0;exitDy=0;" parent="1" source="hqlPJ9sTbHjb_ISFIXqj-41" target="hqlPJ9sTbHjb_ISFIXqj-40" edge="1">
          <mxGeometry relative="1" as="geometry">
            <mxPoint x="115" y="-193.5" as="sourcePoint" />
            <mxPoint x="230" y="-190.5" as="targetPoint" />
          </mxGeometry>
        </mxCell>
        <mxCell id="hqlPJ9sTbHjb_ISFIXqj-57" value="" style="endArrow=none;html=1;rounded=0;entryX=0.102;entryY=0.998;entryDx=0;entryDy=0;exitX=1;exitY=0;exitDx=0;exitDy=0;entryPerimeter=0;" parent="1" source="hqlPJ9sTbHjb_ISFIXqj-43" target="hqlPJ9sTbHjb_ISFIXqj-40" edge="1">
          <mxGeometry relative="1" as="geometry">
            <mxPoint x="132.5" y="-157.5" as="sourcePoint" />
            <mxPoint x="247.5" y="-183.5" as="targetPoint" />
          </mxGeometry>
        </mxCell>
        <mxCell id="hqlPJ9sTbHjb_ISFIXqj-60" value="" style="endArrow=none;html=1;rounded=0;entryX=0.869;entryY=0.983;entryDx=0;entryDy=0;exitX=0;exitY=0;exitDx=0;exitDy=0;entryPerimeter=0;" parent="1" source="hqlPJ9sTbHjb_ISFIXqj-47" edge="1">
          <mxGeometry relative="1" as="geometry">
            <mxPoint x="368" y="-143.5" as="sourcePoint" />
            <mxPoint x="330" y="-220.5" as="targetPoint" />
          </mxGeometry>
        </mxCell>
        <mxCell id="hqlPJ9sTbHjb_ISFIXqj-61" value="" style="endArrow=none;html=1;rounded=0;entryX=0.869;entryY=0.983;entryDx=0;entryDy=0;exitX=0;exitY=0.5;exitDx=0;exitDy=0;entryPerimeter=0;" parent="1" source="hqlPJ9sTbHjb_ISFIXqj-48" edge="1">
          <mxGeometry relative="1" as="geometry">
            <mxPoint x="455" y="-143.5" as="sourcePoint" />
            <mxPoint x="330" y="-226.5" as="targetPoint" />
          </mxGeometry>
        </mxCell>
        <mxCell id="hqlPJ9sTbHjb_ISFIXqj-62" value="" style="endArrow=none;html=1;rounded=0;entryX=0.869;entryY=0.983;entryDx=0;entryDy=0;exitX=0;exitY=1;exitDx=0;exitDy=0;entryPerimeter=0;" parent="1" source="hqlPJ9sTbHjb_ISFIXqj-51" edge="1">
          <mxGeometry relative="1" as="geometry">
            <mxPoint x="440" y="-190.5" as="sourcePoint" />
            <mxPoint x="330" y="-233.5" as="targetPoint" />
          </mxGeometry>
        </mxCell>
        <mxCell id="hqlPJ9sTbHjb_ISFIXqj-63" value="" style="endArrow=none;html=1;rounded=0;entryX=0.869;entryY=0.983;entryDx=0;entryDy=0;exitX=0;exitY=1;exitDx=0;exitDy=0;entryPerimeter=0;" parent="1" source="hqlPJ9sTbHjb_ISFIXqj-50" edge="1">
          <mxGeometry relative="1" as="geometry">
            <mxPoint x="455" y="-249.5" as="sourcePoint" />
            <mxPoint x="330" y="-243.5" as="targetPoint" />
          </mxGeometry>
        </mxCell>
        <mxCell id="hqlPJ9sTbHjb_ISFIXqj-65" value="Departamento" style="ellipse;whiteSpace=wrap;html=1;align=center;" parent="1" vertex="1">
          <mxGeometry x="470" y="65.5" width="100" height="40" as="geometry" />
        </mxCell>
        <mxCell id="hqlPJ9sTbHjb_ISFIXqj-66" value="Historicos" style="whiteSpace=wrap;html=1;align=center;" parent="1" vertex="1">
          <mxGeometry x="300" y="33" width="100" height="40" as="geometry" />
        </mxCell>
        <mxCell id="hqlPJ9sTbHjb_ISFIXqj-67" value="FechaIni" style="ellipse;whiteSpace=wrap;html=1;align=center;" parent="1" vertex="1">
          <mxGeometry x="490" y="15.5" width="100" height="40" as="geometry" />
        </mxCell>
        <mxCell id="hqlPJ9sTbHjb_ISFIXqj-68" value="FechaFin" style="ellipse;whiteSpace=wrap;html=1;align=center;" parent="1" vertex="1">
          <mxGeometry x="445" y="-24.5" width="100" height="40" as="geometry" />
        </mxCell>
        <mxCell id="hqlPJ9sTbHjb_ISFIXqj-69" value="NombrePuesto" style="ellipse;whiteSpace=wrap;html=1;align=center;" parent="1" vertex="1">
          <mxGeometry x="250" y="155.5" width="100" height="40" as="geometry" />
        </mxCell>
        <mxCell id="hqlPJ9sTbHjb_ISFIXqj-70" value="Monto" style="ellipse;whiteSpace=wrap;html=1;align=center;" parent="1" vertex="1">
          <mxGeometry x="355" y="170" width="100" height="40" as="geometry" />
        </mxCell>
        <mxCell id="hqlPJ9sTbHjb_ISFIXqj-71" value="" style="endArrow=none;html=1;rounded=0;entryX=0.5;entryY=0;entryDx=0;entryDy=0;exitX=0.5;exitY=1;exitDx=0;exitDy=0;" parent="1" source="hqlPJ9sTbHjb_ISFIXqj-66" target="hqlPJ9sTbHjb_ISFIXqj-69" edge="1">
          <mxGeometry relative="1" as="geometry">
            <mxPoint x="550" y="3" as="sourcePoint" />
            <mxPoint x="505" y="29" as="targetPoint" />
          </mxGeometry>
        </mxCell>
        <mxCell id="hqlPJ9sTbHjb_ISFIXqj-72" value="" style="endArrow=none;html=1;rounded=0;entryX=0;entryY=0.5;entryDx=0;entryDy=0;exitX=1;exitY=0.5;exitDx=0;exitDy=0;" parent="1" source="hqlPJ9sTbHjb_ISFIXqj-66" target="hqlPJ9sTbHjb_ISFIXqj-67" edge="1">
          <mxGeometry relative="1" as="geometry">
            <mxPoint x="615" y="-7" as="sourcePoint" />
            <mxPoint x="590" y="19" as="targetPoint" />
          </mxGeometry>
        </mxCell>
        <mxCell id="hqlPJ9sTbHjb_ISFIXqj-73" value="" style="endArrow=none;html=1;rounded=0;entryX=0;entryY=0.5;entryDx=0;entryDy=0;exitX=1;exitY=0.75;exitDx=0;exitDy=0;" parent="1" source="hqlPJ9sTbHjb_ISFIXqj-66" target="hqlPJ9sTbHjb_ISFIXqj-65" edge="1">
          <mxGeometry relative="1" as="geometry">
            <mxPoint x="595" y="-7" as="sourcePoint" />
            <mxPoint x="625" y="19" as="targetPoint" />
          </mxGeometry>
        </mxCell>
        <mxCell id="hqlPJ9sTbHjb_ISFIXqj-74" value="" style="endArrow=none;html=1;rounded=0;entryX=0;entryY=1;entryDx=0;entryDy=0;exitX=1;exitY=0;exitDx=0;exitDy=0;" parent="1" source="hqlPJ9sTbHjb_ISFIXqj-66" target="hqlPJ9sTbHjb_ISFIXqj-68" edge="1">
          <mxGeometry relative="1" as="geometry">
            <mxPoint x="525" y="-7" as="sourcePoint" />
            <mxPoint x="575" y="103" as="targetPoint" />
          </mxGeometry>
        </mxCell>
        <mxCell id="hqlPJ9sTbHjb_ISFIXqj-75" value="" style="endArrow=none;html=1;rounded=0;entryX=0.5;entryY=0;entryDx=0;entryDy=0;exitX=0.853;exitY=0.99;exitDx=0;exitDy=0;exitPerimeter=0;" parent="1" source="hqlPJ9sTbHjb_ISFIXqj-66" target="hqlPJ9sTbHjb_ISFIXqj-70" edge="1">
          <mxGeometry relative="1" as="geometry">
            <mxPoint x="575" y="13" as="sourcePoint" />
            <mxPoint x="555" y="123" as="targetPoint" />
          </mxGeometry>
        </mxCell>
        <mxCell id="hqlPJ9sTbHjb_ISFIXqj-76" value="Roles" style="ellipse;shape=doubleEllipse;margin=3;whiteSpace=wrap;html=1;align=center;" parent="1" vertex="1">
          <mxGeometry x="550" y="-320" width="100" height="40" as="geometry" />
        </mxCell>
        <mxCell id="hqlPJ9sTbHjb_ISFIXqj-77" value="Edicion" style="ellipse;whiteSpace=wrap;html=1;align=center;" parent="1" vertex="1">
          <mxGeometry x="705" y="-243.5" width="100" height="40" as="geometry" />
        </mxCell>
        <mxCell id="hqlPJ9sTbHjb_ISFIXqj-78" value="Visualiizacion" style="ellipse;whiteSpace=wrap;html=1;align=center;" parent="1" vertex="1">
          <mxGeometry x="737.5" y="-293.5" width="100" height="40" as="geometry" />
        </mxCell>
        <mxCell id="hqlPJ9sTbHjb_ISFIXqj-79" value="Reporteria" style="ellipse;whiteSpace=wrap;html=1;align=center;" parent="1" vertex="1">
          <mxGeometry x="620" y="-203.5" width="100" height="40" as="geometry" />
        </mxCell>
        <mxCell id="hqlPJ9sTbHjb_ISFIXqj-80" value="" style="endArrow=none;html=1;rounded=0;entryX=0.981;entryY=0.72;entryDx=0;entryDy=0;exitX=0;exitY=0;exitDx=0;exitDy=0;entryPerimeter=0;" parent="1" source="hqlPJ9sTbHjb_ISFIXqj-78" target="hqlPJ9sTbHjb_ISFIXqj-76" edge="1">
          <mxGeometry relative="1" as="geometry">
            <mxPoint x="502.5" y="-43.5" as="sourcePoint" />
            <mxPoint x="474.5" y="-90.5" as="targetPoint" />
          </mxGeometry>
        </mxCell>
        <mxCell id="hqlPJ9sTbHjb_ISFIXqj-81" value="" style="endArrow=none;html=1;rounded=0;entryX=1;entryY=1;entryDx=0;entryDy=0;exitX=0.5;exitY=0;exitDx=0;exitDy=0;" parent="1" source="hqlPJ9sTbHjb_ISFIXqj-77" target="hqlPJ9sTbHjb_ISFIXqj-76" edge="1">
          <mxGeometry relative="1" as="geometry">
            <mxPoint x="502.5" y="22.5" as="sourcePoint" />
            <mxPoint x="437.5" y="-33.5" as="targetPoint" />
          </mxGeometry>
        </mxCell>
        <mxCell id="hqlPJ9sTbHjb_ISFIXqj-85" value="Vendedor" style="ellipse;whiteSpace=wrap;html=1;align=center;" parent="1" vertex="1">
          <mxGeometry x="720" y="-347" width="100" height="30" as="geometry" />
        </mxCell>
        <mxCell id="hqlPJ9sTbHjb_ISFIXqj-86" value="" style="endArrow=none;html=1;rounded=0;entryX=0.95;entryY=0.275;entryDx=0;entryDy=0;exitX=-0.002;exitY=0.32;exitDx=0;exitDy=0;entryPerimeter=0;exitPerimeter=0;" parent="1" source="hqlPJ9sTbHjb_ISFIXqj-85" target="hqlPJ9sTbHjb_ISFIXqj-76" edge="1">
          <mxGeometry relative="1" as="geometry">
            <mxPoint x="522.5" y="-25.5" as="sourcePoint" />
            <mxPoint x="457.5" y="-81.5" as="targetPoint" />
          </mxGeometry>
        </mxCell>
        <mxCell id="hqlPJ9sTbHjb_ISFIXqj-87" value="Cedula/usuario" style="ellipse;whiteSpace=wrap;html=1;align=center;" parent="1" vertex="1">
          <mxGeometry x="440" y="140" width="100" height="40" as="geometry" />
        </mxCell>
        <mxCell id="hqlPJ9sTbHjb_ISFIXqj-88" value="" style="endArrow=none;html=1;rounded=0;entryX=0;entryY=0;entryDx=0;entryDy=0;exitX=1;exitY=1;exitDx=0;exitDy=0;" parent="1" source="hqlPJ9sTbHjb_ISFIXqj-66" target="hqlPJ9sTbHjb_ISFIXqj-87" edge="1">
          <mxGeometry relative="1" as="geometry">
            <mxPoint x="575" y="3" as="sourcePoint" />
            <mxPoint x="520" y="158" as="targetPoint" />
          </mxGeometry>
        </mxCell>
        <mxCell id="hqlPJ9sTbHjb_ISFIXqj-98" value="" style="fontSize=12;html=1;endArrow=ERoneToMany;rounded=0;entryX=0.5;entryY=0;entryDx=0;entryDy=0;exitX=0.5;exitY=1;exitDx=0;exitDy=0;" parent="1" source="hqlPJ9sTbHjb_ISFIXqj-99" target="hqlPJ9sTbHjb_ISFIXqj-40" edge="1">
          <mxGeometry width="100" height="100" relative="1" as="geometry">
            <mxPoint x="282.68" y="-370" as="sourcePoint" />
            <mxPoint x="283.24000000000046" y="-210" as="targetPoint" />
          </mxGeometry>
        </mxCell>
        <mxCell id="hqlPJ9sTbHjb_ISFIXqj-99" value="Trabajan para&lt;div&gt;un&lt;/div&gt;" style="shape=rhombus;perimeter=rhombusPerimeter;whiteSpace=wrap;html=1;align=center;" parent="1" vertex="1">
          <mxGeometry x="220" y="-430" width="120" height="60" as="geometry" />
        </mxCell>
        <mxCell id="hqlPJ9sTbHjb_ISFIXqj-101" value="" style="endArrow=none;html=1;rounded=0;entryX=0.5;entryY=0;entryDx=0;entryDy=0;exitX=0.5;exitY=1;exitDx=0;exitDy=0;" parent="1" source="hqlPJ9sTbHjb_ISFIXqj-35" target="hqlPJ9sTbHjb_ISFIXqj-99" edge="1">
          <mxGeometry relative="1" as="geometry">
            <mxPoint x="250" y="-567.5" as="sourcePoint" />
            <mxPoint x="350" y="-487.5" as="targetPoint" />
          </mxGeometry>
        </mxCell>
        <mxCell id="hqlPJ9sTbHjb_ISFIXqj-103" value="Tienen" style="shape=rhombus;perimeter=rhombusPerimeter;whiteSpace=wrap;html=1;align=center;" parent="1" vertex="1">
          <mxGeometry x="290" y="-72.5" width="100" height="66.5" as="geometry" />
        </mxCell>
        <mxCell id="hqlPJ9sTbHjb_ISFIXqj-104" value="" style="fontSize=12;html=1;endArrow=ERmandOne;rounded=0;exitX=0.5;exitY=1;exitDx=0;exitDy=0;entryX=0.5;entryY=0;entryDx=0;entryDy=0;" parent="1" source="hqlPJ9sTbHjb_ISFIXqj-103" target="hqlPJ9sTbHjb_ISFIXqj-66" edge="1">
          <mxGeometry width="100" height="100" relative="1" as="geometry">
            <mxPoint x="280" y="-60" as="sourcePoint" />
            <mxPoint x="280" as="targetPoint" />
          </mxGeometry>
        </mxCell>
        <mxCell id="hqlPJ9sTbHjb_ISFIXqj-105" value="" style="endArrow=none;html=1;rounded=0;exitX=0.255;exitY=0.117;exitDx=0;exitDy=0;entryX=1;entryY=0.75;entryDx=0;entryDy=0;exitPerimeter=0;" parent="1" source="hqlPJ9sTbHjb_ISFIXqj-45" target="hqlPJ9sTbHjb_ISFIXqj-40" edge="1">
          <mxGeometry relative="1" as="geometry">
            <mxPoint x="-93" y="-220" as="sourcePoint" />
            <mxPoint x="203" y="-226.75" as="targetPoint" />
            <Array as="points" />
          </mxGeometry>
        </mxCell>
        <mxCell id="hqlPJ9sTbHjb_ISFIXqj-106" value="" style="endArrow=none;html=1;rounded=0;entryX=0.75;entryY=1.019;entryDx=0;entryDy=0;exitX=0.5;exitY=0;exitDx=0;exitDy=0;entryPerimeter=0;" parent="1" source="hqlPJ9sTbHjb_ISFIXqj-79" target="hqlPJ9sTbHjb_ISFIXqj-76" edge="1">
          <mxGeometry relative="1" as="geometry">
            <mxPoint x="347.5" y="6.5" as="sourcePoint" />
            <mxPoint x="400" y="-59" as="targetPoint" />
          </mxGeometry>
        </mxCell>
        <mxCell id="hqlPJ9sTbHjb_ISFIXqj-107" value="Historicos" style="ellipse;shape=doubleEllipse;margin=3;whiteSpace=wrap;html=1;align=center;" parent="1" vertex="1">
          <mxGeometry x="515" y="-233.5" width="100" height="40" as="geometry" />
        </mxCell>
        <mxCell id="hqlPJ9sTbHjb_ISFIXqj-108" value="" style="endArrow=none;html=1;rounded=0;entryX=0;entryY=0.5;entryDx=0;entryDy=0;exitX=1;exitY=0.5;exitDx=0;exitDy=0;" parent="1" source="hqlPJ9sTbHjb_ISFIXqj-40" target="hqlPJ9sTbHjb_ISFIXqj-107" edge="1">
          <mxGeometry relative="1" as="geometry">
            <mxPoint x="520" y="-207.5" as="sourcePoint" />
            <mxPoint x="570" y="-273.5" as="targetPoint" />
          </mxGeometry>
        </mxCell>
        <mxCell id="hqlPJ9sTbHjb_ISFIXqj-109" value="" style="endArrow=none;html=1;rounded=0;entryX=1;entryY=0.25;entryDx=0;entryDy=0;" parent="1" target="hqlPJ9sTbHjb_ISFIXqj-40" edge="1">
          <mxGeometry relative="1" as="geometry">
            <mxPoint x="550" y="-300" as="sourcePoint" />
            <mxPoint x="312" y="-193.5" as="targetPoint" />
            <Array as="points">
              <mxPoint x="510" y="-300" />
            </Array>
          </mxGeometry>
        </mxCell>
        <mxCell id="hqlPJ9sTbHjb_ISFIXqj-110" value="" style="fontSize=12;html=1;endArrow=ERmandOne;rounded=0;exitX=0.5;exitY=0;exitDx=0;exitDy=0;entryX=1;entryY=1;entryDx=0;entryDy=0;" parent="1" source="hqlPJ9sTbHjb_ISFIXqj-103" target="hqlPJ9sTbHjb_ISFIXqj-40" edge="1">
          <mxGeometry width="100" height="100" relative="1" as="geometry">
            <mxPoint x="340" y="-193.5" as="sourcePoint" />
            <mxPoint x="340" y="-113.5" as="targetPoint" />
          </mxGeometry>
        </mxCell>
        <mxCell id="hqlPJ9sTbHjb_ISFIXqj-111" value="Planilla" style="whiteSpace=wrap;html=1;align=center;" parent="1" vertex="1">
          <mxGeometry x="430" y="-610" width="100" height="40" as="geometry" />
        </mxCell>
        <mxCell id="hqlPJ9sTbHjb_ISFIXqj-112" value="Numplanilla" style="ellipse;whiteSpace=wrap;html=1;align=center;" parent="1" vertex="1">
          <mxGeometry x="405" y="-740" width="120" height="40" as="geometry" />
        </mxCell>
        <mxCell id="hqlPJ9sTbHjb_ISFIXqj-113" value="HorasLaboradas" style="ellipse;whiteSpace=wrap;html=1;align=center;" parent="1" vertex="1">
          <mxGeometry x="540" y="-740" width="120" height="40" as="geometry" />
        </mxCell>
        <mxCell id="hqlPJ9sTbHjb_ISFIXqj-114" value="HorasExtra" style="ellipse;whiteSpace=wrap;html=1;align=center;" parent="1" vertex="1">
          <mxGeometry x="655" y="-710" width="120" height="40" as="geometry" />
        </mxCell>
        <mxCell id="hqlPJ9sTbHjb_ISFIXqj-115" value="Salario" style="ellipse;whiteSpace=wrap;html=1;align=center;" parent="1" vertex="1">
          <mxGeometry x="685" y="-650" width="120" height="40" as="geometry" />
        </mxCell>
        <mxCell id="hqlPJ9sTbHjb_ISFIXqj-116" value="" style="endArrow=none;html=1;rounded=0;entryX=0.5;entryY=1;entryDx=0;entryDy=0;exitX=0.25;exitY=0;exitDx=0;exitDy=0;" parent="1" source="hqlPJ9sTbHjb_ISFIXqj-111" target="hqlPJ9sTbHjb_ISFIXqj-112" edge="1">
          <mxGeometry relative="1" as="geometry">
            <mxPoint x="395" y="-620" as="sourcePoint" />
            <mxPoint x="425" y="-594" as="targetPoint" />
          </mxGeometry>
        </mxCell>
        <mxCell id="hqlPJ9sTbHjb_ISFIXqj-117" value="HorasMensuales" style="ellipse;whiteSpace=wrap;html=1;align=center;" parent="1" vertex="1">
          <mxGeometry x="290" y="-720" width="120" height="40" as="geometry" />
        </mxCell>
        <mxCell id="hqlPJ9sTbHjb_ISFIXqj-118" value="" style="endArrow=none;html=1;rounded=0;entryX=1;entryY=1;entryDx=0;entryDy=0;exitX=0;exitY=0.25;exitDx=0;exitDy=0;" parent="1" source="hqlPJ9sTbHjb_ISFIXqj-111" target="hqlPJ9sTbHjb_ISFIXqj-117" edge="1">
          <mxGeometry relative="1" as="geometry">
            <mxPoint x="465" y="-590" as="sourcePoint" />
            <mxPoint x="427.4264068712164" y="-524.1421356237393" as="targetPoint" />
          </mxGeometry>
        </mxCell>
        <mxCell id="hqlPJ9sTbHjb_ISFIXqj-119" value="" style="endArrow=none;html=1;rounded=0;exitX=0.75;exitY=0;exitDx=0;exitDy=0;entryX=0.317;entryY=1.066;entryDx=0;entryDy=0;entryPerimeter=0;" parent="1" source="hqlPJ9sTbHjb_ISFIXqj-111" target="hqlPJ9sTbHjb_ISFIXqj-113" edge="1">
          <mxGeometry relative="1" as="geometry">
            <mxPoint x="543" y="-616" as="sourcePoint" />
            <mxPoint x="550" y="-700" as="targetPoint" />
          </mxGeometry>
        </mxCell>
        <mxCell id="hqlPJ9sTbHjb_ISFIXqj-120" value="" style="endArrow=none;html=1;rounded=0;entryX=0.036;entryY=0.669;entryDx=0;entryDy=0;exitX=1;exitY=1;exitDx=0;exitDy=0;entryPerimeter=0;" parent="1" source="hqlPJ9sTbHjb_ISFIXqj-111" target="hqlPJ9sTbHjb_ISFIXqj-115" edge="1">
          <mxGeometry relative="1" as="geometry">
            <mxPoint x="500" y="-630" as="sourcePoint" />
            <mxPoint x="452" y="-524" as="targetPoint" />
          </mxGeometry>
        </mxCell>
        <mxCell id="hqlPJ9sTbHjb_ISFIXqj-121" value="" style="endArrow=none;html=1;rounded=0;entryX=0;entryY=1;entryDx=0;entryDy=0;exitX=1;exitY=0.75;exitDx=0;exitDy=0;" parent="1" source="hqlPJ9sTbHjb_ISFIXqj-111" target="hqlPJ9sTbHjb_ISFIXqj-114" edge="1">
          <mxGeometry relative="1" as="geometry">
            <mxPoint x="508.5" y="-610" as="sourcePoint" />
            <mxPoint x="561.5" y="-504" as="targetPoint" />
          </mxGeometry>
        </mxCell>
        <mxCell id="hqlPJ9sTbHjb_ISFIXqj-123" value="Pagan por" style="shape=rhombus;perimeter=rhombusPerimeter;whiteSpace=wrap;html=1;align=center;" parent="1" vertex="1">
          <mxGeometry x="355" y="-430" width="120" height="60" as="geometry" />
        </mxCell>
        <mxCell id="hqlPJ9sTbHjb_ISFIXqj-126" value="" style="fontSize=12;html=1;endArrow=ERmandOne;rounded=0;exitX=0.5;exitY=1;exitDx=0;exitDy=0;entryX=0.75;entryY=0;entryDx=0;entryDy=0;" parent="1" source="hqlPJ9sTbHjb_ISFIXqj-123" target="hqlPJ9sTbHjb_ISFIXqj-40" edge="1">
          <mxGeometry width="100" height="100" relative="1" as="geometry">
            <mxPoint x="330" y="-363.5" as="sourcePoint" />
            <mxPoint x="360" y="-370" as="targetPoint" />
          </mxGeometry>
        </mxCell>
        <mxCell id="hqlPJ9sTbHjb_ISFIXqj-127" value="" style="endArrow=none;html=1;rounded=0;entryX=0.5;entryY=0;entryDx=0;entryDy=0;exitX=0.5;exitY=1;exitDx=0;exitDy=0;" parent="1" source="hqlPJ9sTbHjb_ISFIXqj-111" target="hqlPJ9sTbHjb_ISFIXqj-123" edge="1">
          <mxGeometry relative="1" as="geometry">
            <mxPoint x="595" y="-501" as="sourcePoint" />
            <mxPoint x="510" y="-510" as="targetPoint" />
          </mxGeometry>
        </mxCell>
        <mxCell id="hqlPJ9sTbHjb_ISFIXqj-128" value="Caso" style="whiteSpace=wrap;html=1;align=center;" parent="1" vertex="1">
          <mxGeometry x="-490" y="-1200" width="100" height="40" as="geometry" />
        </mxCell>
        <mxCell id="hqlPJ9sTbHjb_ISFIXqj-129" value="Propietario&lt;div&gt;Caso&lt;/div&gt;" style="ellipse;whiteSpace=wrap;html=1;align=center;" parent="1" vertex="1">
          <mxGeometry x="-605" y="-1128" width="100" height="40" as="geometry" />
        </mxCell>
        <mxCell id="hqlPJ9sTbHjb_ISFIXqj-130" value="OrigenCaso" style="ellipse;whiteSpace=wrap;html=1;align=center;" parent="1" vertex="1">
          <mxGeometry x="-610" y="-1068" width="100" height="40" as="geometry" />
        </mxCell>
        <mxCell id="hqlPJ9sTbHjb_ISFIXqj-131" value="NombreCuenta" style="ellipse;whiteSpace=wrap;html=1;align=center;" parent="1" vertex="1">
          <mxGeometry x="-360" y="-1128" width="100" height="40" as="geometry" />
        </mxCell>
        <mxCell id="hqlPJ9sTbHjb_ISFIXqj-132" value="NombreContacto" style="ellipse;whiteSpace=wrap;html=1;align=center;" parent="1" vertex="1">
          <mxGeometry x="-360" y="-1068" width="100" height="40" as="geometry" />
        </mxCell>
        <mxCell id="hqlPJ9sTbHjb_ISFIXqj-133" value="Asunto" style="ellipse;whiteSpace=wrap;html=1;align=center;" parent="1" vertex="1">
          <mxGeometry x="-605" y="-948" width="100" height="40" as="geometry" />
        </mxCell>
        <mxCell id="hqlPJ9sTbHjb_ISFIXqj-134" value="Dirección" style="ellipse;whiteSpace=wrap;html=1;align=center;" parent="1" vertex="1">
          <mxGeometry x="-360" y="-948" width="100" height="40" as="geometry" />
        </mxCell>
        <mxCell id="hqlPJ9sTbHjb_ISFIXqj-135" value="Descripcion" style="ellipse;whiteSpace=wrap;html=1;align=center;" parent="1" vertex="1">
          <mxGeometry x="-360" y="-1008" width="100" height="40" as="geometry" />
        </mxCell>
        <mxCell id="hqlPJ9sTbHjb_ISFIXqj-136" value="Estado" style="ellipse;whiteSpace=wrap;html=1;align=center;" parent="1" vertex="1">
          <mxGeometry x="-610" y="-1008" width="100" height="40" as="geometry" />
        </mxCell>
        <mxCell id="hqlPJ9sTbHjb_ISFIXqj-137" value="TipoCaso" style="ellipse;whiteSpace=wrap;html=1;align=center;" parent="1" vertex="1">
          <mxGeometry x="-610" y="-888" width="100" height="40" as="geometry" />
        </mxCell>
        <mxCell id="hqlPJ9sTbHjb_ISFIXqj-138" value="Prioridad" style="ellipse;whiteSpace=wrap;html=1;align=center;" parent="1" vertex="1">
          <mxGeometry x="-360" y="-888" width="100" height="40" as="geometry" />
        </mxCell>
        <mxCell id="hqlPJ9sTbHjb_ISFIXqj-139" value="" style="endArrow=none;html=1;rounded=0;entryX=0;entryY=1;entryDx=0;entryDy=0;exitX=1;exitY=0;exitDx=0;exitDy=0;" parent="1" source="hqlPJ9sTbHjb_ISFIXqj-129" target="hqlPJ9sTbHjb_ISFIXqj-128" edge="1">
          <mxGeometry relative="1" as="geometry">
            <mxPoint x="-459" y="-831" as="sourcePoint" />
            <mxPoint x="-460" y="-1148" as="targetPoint" />
          </mxGeometry>
        </mxCell>
        <mxCell id="hqlPJ9sTbHjb_ISFIXqj-140" value="" style="endArrow=none;html=1;rounded=0;entryX=0;entryY=1;entryDx=0;entryDy=0;exitX=0;exitY=0;exitDx=0;exitDy=0;" parent="1" source="hqlPJ9sTbHjb_ISFIXqj-131" edge="1">
          <mxGeometry relative="1" as="geometry">
            <mxPoint x="-420" y="-1122" as="sourcePoint" />
            <mxPoint x="-390" y="-1170" as="targetPoint" />
          </mxGeometry>
        </mxCell>
        <mxCell id="hqlPJ9sTbHjb_ISFIXqj-141" value="" style="endArrow=none;html=1;rounded=0;entryX=0.138;entryY=1.002;entryDx=0;entryDy=0;exitX=1;exitY=0;exitDx=0;exitDy=0;entryPerimeter=0;" parent="1" source="hqlPJ9sTbHjb_ISFIXqj-130" target="hqlPJ9sTbHjb_ISFIXqj-128" edge="1">
          <mxGeometry relative="1" as="geometry">
            <mxPoint x="-510" y="-1112" as="sourcePoint" />
            <mxPoint x="-480" y="-1160" as="targetPoint" />
          </mxGeometry>
        </mxCell>
        <mxCell id="hqlPJ9sTbHjb_ISFIXqj-142" value="" style="endArrow=none;html=1;rounded=0;entryX=0.25;entryY=1;entryDx=0;entryDy=0;exitX=1;exitY=0.5;exitDx=0;exitDy=0;" parent="1" source="hqlPJ9sTbHjb_ISFIXqj-136" target="hqlPJ9sTbHjb_ISFIXqj-128" edge="1">
          <mxGeometry relative="1" as="geometry">
            <mxPoint x="-515" y="-1052" as="sourcePoint" />
            <mxPoint x="-463" y="-1157" as="targetPoint" />
          </mxGeometry>
        </mxCell>
        <mxCell id="hqlPJ9sTbHjb_ISFIXqj-143" value="" style="endArrow=none;html=1;rounded=0;entryX=0.354;entryY=0.978;entryDx=0;entryDy=0;exitX=1;exitY=0.5;exitDx=0;exitDy=0;entryPerimeter=0;" parent="1" source="hqlPJ9sTbHjb_ISFIXqj-133" target="hqlPJ9sTbHjb_ISFIXqj-128" edge="1">
          <mxGeometry relative="1" as="geometry">
            <mxPoint x="-500" y="-978" as="sourcePoint" />
            <mxPoint x="-455" y="-1160" as="targetPoint" />
          </mxGeometry>
        </mxCell>
        <mxCell id="hqlPJ9sTbHjb_ISFIXqj-144" value="" style="endArrow=none;html=1;rounded=0;entryX=0.928;entryY=0.995;entryDx=0;entryDy=0;exitX=0;exitY=0;exitDx=0;exitDy=0;entryPerimeter=0;" parent="1" source="hqlPJ9sTbHjb_ISFIXqj-132" target="hqlPJ9sTbHjb_ISFIXqj-128" edge="1">
          <mxGeometry relative="1" as="geometry">
            <mxPoint x="-466" y="-1043" as="sourcePoint" />
            <mxPoint x="-414" y="-1148" as="targetPoint" />
          </mxGeometry>
        </mxCell>
        <mxCell id="hqlPJ9sTbHjb_ISFIXqj-145" value="" style="endArrow=none;html=1;rounded=0;entryX=0.727;entryY=0.986;entryDx=0;entryDy=0;exitX=0;exitY=0.5;exitDx=0;exitDy=0;entryPerimeter=0;" parent="1" source="hqlPJ9sTbHjb_ISFIXqj-135" target="hqlPJ9sTbHjb_ISFIXqj-128" edge="1">
          <mxGeometry relative="1" as="geometry">
            <mxPoint x="-368" y="-1060" as="sourcePoint" />
            <mxPoint x="-420" y="-1168" as="targetPoint" />
          </mxGeometry>
        </mxCell>
        <mxCell id="hqlPJ9sTbHjb_ISFIXqj-146" value="" style="endArrow=none;html=1;rounded=0;entryX=0.622;entryY=0.994;entryDx=0;entryDy=0;exitX=0;exitY=0.5;exitDx=0;exitDy=0;entryPerimeter=0;" parent="1" source="hqlPJ9sTbHjb_ISFIXqj-134" target="hqlPJ9sTbHjb_ISFIXqj-128" edge="1">
          <mxGeometry relative="1" as="geometry">
            <mxPoint x="-370" y="-990" as="sourcePoint" />
            <mxPoint x="-430" y="-1170" as="targetPoint" />
          </mxGeometry>
        </mxCell>
        <mxCell id="hqlPJ9sTbHjb_ISFIXqj-147" value="" style="endArrow=none;html=1;rounded=0;entryX=0.41;entryY=0.995;entryDx=0;entryDy=0;exitX=1;exitY=0.5;exitDx=0;exitDy=0;entryPerimeter=0;" parent="1" source="hqlPJ9sTbHjb_ISFIXqj-137" target="hqlPJ9sTbHjb_ISFIXqj-128" edge="1">
          <mxGeometry relative="1" as="geometry">
            <mxPoint x="-495" y="-918" as="sourcePoint" />
            <mxPoint x="-446" y="-1159" as="targetPoint" />
          </mxGeometry>
        </mxCell>
        <mxCell id="hqlPJ9sTbHjb_ISFIXqj-148" value="" style="endArrow=none;html=1;rounded=0;entryX=0.545;entryY=1.029;entryDx=0;entryDy=0;exitX=0;exitY=0.5;exitDx=0;exitDy=0;entryPerimeter=0;" parent="1" source="hqlPJ9sTbHjb_ISFIXqj-138" target="hqlPJ9sTbHjb_ISFIXqj-128" edge="1">
          <mxGeometry relative="1" as="geometry">
            <mxPoint x="-470.5" y="-848" as="sourcePoint" />
            <mxPoint x="-409.5" y="-1150" as="targetPoint" />
          </mxGeometry>
        </mxCell>
        <mxCell id="hqlPJ9sTbHjb_ISFIXqj-149" value="Origen" style="ellipse;whiteSpace=wrap;html=1;align=center;" parent="1" vertex="1">
          <mxGeometry x="20" y="-1200" width="100" height="40" as="geometry" />
        </mxCell>
        <mxCell id="hqlPJ9sTbHjb_ISFIXqj-150" value="Tarea" style="whiteSpace=wrap;html=1;align=center;" parent="1" vertex="1">
          <mxGeometry x="-130" y="-1197" width="100" height="40" as="geometry" />
        </mxCell>
        <mxCell id="hqlPJ9sTbHjb_ISFIXqj-151" value="Usuario" style="ellipse;whiteSpace=wrap;html=1;align=center;" parent="1" vertex="1">
          <mxGeometry x="-240" y="-1130" width="100" height="40" as="geometry" />
        </mxCell>
        <mxCell id="hqlPJ9sTbHjb_ISFIXqj-152" value="#tarea" style="ellipse;whiteSpace=wrap;html=1;align=center;" parent="1" vertex="1">
          <mxGeometry x="-235" y="-1068" width="100" height="40" as="geometry" />
        </mxCell>
        <mxCell id="hqlPJ9sTbHjb_ISFIXqj-153" value="Descripcion" style="ellipse;whiteSpace=wrap;html=1;align=center;" parent="1" vertex="1">
          <mxGeometry x="-30" y="-1130" width="100" height="40" as="geometry" />
        </mxCell>
        <mxCell id="hqlPJ9sTbHjb_ISFIXqj-154" value="" style="endArrow=none;html=1;rounded=0;entryX=1;entryY=0;entryDx=0;entryDy=0;exitX=0;exitY=1;exitDx=0;exitDy=0;" parent="1" source="hqlPJ9sTbHjb_ISFIXqj-150" target="hqlPJ9sTbHjb_ISFIXqj-151" edge="1">
          <mxGeometry relative="1" as="geometry">
            <mxPoint x="-140" y="-1140" as="sourcePoint" />
            <mxPoint x="-185" y="-1188" as="targetPoint" />
          </mxGeometry>
        </mxCell>
        <mxCell id="hqlPJ9sTbHjb_ISFIXqj-155" value="" style="endArrow=none;html=1;rounded=0;entryX=0;entryY=0;entryDx=0;entryDy=0;exitX=0;exitY=1;exitDx=0;exitDy=0;" parent="1" target="hqlPJ9sTbHjb_ISFIXqj-153" edge="1">
          <mxGeometry relative="1" as="geometry">
            <mxPoint x="-30" y="-1157" as="sourcePoint" />
            <mxPoint x="-55" y="-1124" as="targetPoint" />
          </mxGeometry>
        </mxCell>
        <mxCell id="hqlPJ9sTbHjb_ISFIXqj-156" value="" style="endArrow=none;html=1;rounded=0;entryX=1;entryY=0;entryDx=0;entryDy=0;exitX=0.137;exitY=1.028;exitDx=0;exitDy=0;exitPerimeter=0;" parent="1" source="hqlPJ9sTbHjb_ISFIXqj-150" target="hqlPJ9sTbHjb_ISFIXqj-152" edge="1">
          <mxGeometry relative="1" as="geometry">
            <mxPoint x="-105" y="-1140" as="sourcePoint" />
            <mxPoint x="-130" y="-1107" as="targetPoint" />
          </mxGeometry>
        </mxCell>
        <mxCell id="hqlPJ9sTbHjb_ISFIXqj-157" value="" style="fontSize=12;html=1;endArrow=ERoneToMany;rounded=0;entryX=0;entryY=0.5;entryDx=0;entryDy=0;exitX=1;exitY=0.5;exitDx=0;exitDy=0;" parent="1" source="hqlPJ9sTbHjb_ISFIXqj-211" target="hqlPJ9sTbHjb_ISFIXqj-150" edge="1">
          <mxGeometry width="100" height="100" relative="1" as="geometry">
            <mxPoint x="-220" y="-1230.5" as="sourcePoint" />
            <mxPoint x="-285" y="-1323.5" as="targetPoint" />
          </mxGeometry>
        </mxCell>
        <mxCell id="hqlPJ9sTbHjb_ISFIXqj-158" value="" style="endArrow=none;html=1;rounded=0;entryX=0;entryY=0.5;entryDx=0;entryDy=0;exitX=1;exitY=0.425;exitDx=0;exitDy=0;exitPerimeter=0;" parent="1" source="hqlPJ9sTbHjb_ISFIXqj-150" target="hqlPJ9sTbHjb_ISFIXqj-149" edge="1">
          <mxGeometry relative="1" as="geometry">
            <mxPoint x="-20" y="-1180" as="sourcePoint" />
            <mxPoint x="-5" y="-1147" as="targetPoint" />
          </mxGeometry>
        </mxCell>
        <mxCell id="hqlPJ9sTbHjb_ISFIXqj-161" value="" style="endArrow=none;html=1;rounded=0;exitX=0;exitY=0.5;exitDx=0;exitDy=0;entryX=0.95;entryY=0.587;entryDx=0;entryDy=0;entryPerimeter=0;" parent="1" source="hqlPJ9sTbHjb_ISFIXqj-46" target="hqlPJ9sTbHjb_ISFIXqj-45" edge="1">
          <mxGeometry relative="1" as="geometry">
            <mxPoint x="135" y="-343.5" as="sourcePoint" />
            <mxPoint x="155" y="-335" as="targetPoint" />
            <Array as="points" />
          </mxGeometry>
        </mxCell>
        <mxCell id="hqlPJ9sTbHjb_ISFIXqj-163" value="Cliente" style="whiteSpace=wrap;html=1;align=center;" parent="1" vertex="1">
          <mxGeometry x="-837.5" y="-720" width="100" height="40" as="geometry" />
        </mxCell>
        <mxCell id="hqlPJ9sTbHjb_ISFIXqj-164" value="Cedula" style="ellipse;whiteSpace=wrap;html=1;align=center;" parent="1" vertex="1">
          <mxGeometry x="-972.5" y="-606" width="100" height="40" as="geometry" />
        </mxCell>
        <mxCell id="hqlPJ9sTbHjb_ISFIXqj-165" value="Nombre" style="ellipse;whiteSpace=wrap;html=1;align=center;" parent="1" vertex="1">
          <mxGeometry x="-972.5" y="-546" width="100" height="40" as="geometry" />
        </mxCell>
        <mxCell id="hqlPJ9sTbHjb_ISFIXqj-166" value="Correo&lt;div&gt;Electrónico&lt;/div&gt;" style="ellipse;whiteSpace=wrap;html=1;align=center;" parent="1" vertex="1">
          <mxGeometry x="-972.5" y="-486" width="100" height="40" as="geometry" />
        </mxCell>
        <mxCell id="hqlPJ9sTbHjb_ISFIXqj-167" value="Telefono" style="ellipse;whiteSpace=wrap;html=1;align=center;" parent="1" vertex="1">
          <mxGeometry x="-972.5" y="-666" width="100" height="40" as="geometry" />
        </mxCell>
        <mxCell id="hqlPJ9sTbHjb_ISFIXqj-168" value="Celular" style="ellipse;whiteSpace=wrap;html=1;align=center;" parent="1" vertex="1">
          <mxGeometry x="-712.5" y="-536" width="100" height="40" as="geometry" />
        </mxCell>
        <mxCell id="hqlPJ9sTbHjb_ISFIXqj-169" value="Fax" style="ellipse;whiteSpace=wrap;html=1;align=center;" parent="1" vertex="1">
          <mxGeometry x="-712.5" y="-666" width="100" height="40" as="geometry" />
        </mxCell>
        <mxCell id="hqlPJ9sTbHjb_ISFIXqj-170" value="Zona" style="ellipse;whiteSpace=wrap;html=1;align=center;" parent="1" vertex="1">
          <mxGeometry x="-712.5" y="-596" width="100" height="40" as="geometry" />
        </mxCell>
        <mxCell id="hqlPJ9sTbHjb_ISFIXqj-171" value="Sector" style="ellipse;whiteSpace=wrap;html=1;align=center;" parent="1" vertex="1">
          <mxGeometry x="-712.5" y="-476" width="100" height="40" as="geometry" />
        </mxCell>
        <mxCell id="hqlPJ9sTbHjb_ISFIXqj-172" value="" style="endArrow=none;html=1;rounded=0;entryX=1;entryY=0;entryDx=0;entryDy=0;exitX=0;exitY=1;exitDx=0;exitDy=0;" parent="1" source="hqlPJ9sTbHjb_ISFIXqj-163" target="hqlPJ9sTbHjb_ISFIXqj-167" edge="1">
          <mxGeometry relative="1" as="geometry">
            <mxPoint x="-820" y="-606" as="sourcePoint" />
            <mxPoint x="-887.2993866870884" y="-650.2037562490698" as="targetPoint" />
          </mxGeometry>
        </mxCell>
        <mxCell id="hqlPJ9sTbHjb_ISFIXqj-173" value="" style="endArrow=none;html=1;rounded=0;entryX=0;entryY=0;entryDx=0;entryDy=0;exitX=1;exitY=1;exitDx=0;exitDy=0;" parent="1" source="hqlPJ9sTbHjb_ISFIXqj-163" target="hqlPJ9sTbHjb_ISFIXqj-169" edge="1">
          <mxGeometry relative="1" as="geometry">
            <mxPoint x="-742.5" y="-676" as="sourcePoint" />
            <mxPoint x="-787.5" y="-650" as="targetPoint" />
          </mxGeometry>
        </mxCell>
        <mxCell id="hqlPJ9sTbHjb_ISFIXqj-174" value="" style="endArrow=none;html=1;rounded=0;entryX=1;entryY=0;entryDx=0;entryDy=0;exitX=0.086;exitY=1.04;exitDx=0;exitDy=0;exitPerimeter=0;" parent="1" source="hqlPJ9sTbHjb_ISFIXqj-163" target="hqlPJ9sTbHjb_ISFIXqj-164" edge="1">
          <mxGeometry relative="1" as="geometry">
            <mxPoint x="-822.5" y="-656" as="sourcePoint" />
            <mxPoint x="-881.4000000000001" y="-591.6399999999999" as="targetPoint" />
          </mxGeometry>
        </mxCell>
        <mxCell id="hqlPJ9sTbHjb_ISFIXqj-175" value="" style="endArrow=none;html=1;rounded=0;entryX=1;entryY=0;entryDx=0;entryDy=0;exitX=0.201;exitY=1.078;exitDx=0;exitDy=0;exitPerimeter=0;" parent="1" source="hqlPJ9sTbHjb_ISFIXqj-163" target="hqlPJ9sTbHjb_ISFIXqj-165" edge="1">
          <mxGeometry relative="1" as="geometry">
            <mxPoint x="-812.5" y="-646" as="sourcePoint" />
            <mxPoint x="-887.2993866870884" y="-530.20375624907" as="targetPoint" />
          </mxGeometry>
        </mxCell>
        <mxCell id="hqlPJ9sTbHjb_ISFIXqj-176" value="" style="endArrow=none;html=1;rounded=0;entryX=0.933;entryY=0.316;entryDx=0;entryDy=0;exitX=0.392;exitY=1.078;exitDx=0;exitDy=0;exitPerimeter=0;entryPerimeter=0;" parent="1" source="hqlPJ9sTbHjb_ISFIXqj-163" target="hqlPJ9sTbHjb_ISFIXqj-166" edge="1">
          <mxGeometry relative="1" as="geometry">
            <mxPoint x="-802.5" y="-636" as="sourcePoint" />
            <mxPoint x="-872.5" y="-456" as="targetPoint" />
          </mxGeometry>
        </mxCell>
        <mxCell id="hqlPJ9sTbHjb_ISFIXqj-177" value="" style="endArrow=none;html=1;rounded=0;entryX=0;entryY=0;entryDx=0;entryDy=0;exitX=0.913;exitY=1.059;exitDx=0;exitDy=0;exitPerimeter=0;" parent="1" source="hqlPJ9sTbHjb_ISFIXqj-163" target="hqlPJ9sTbHjb_ISFIXqj-170" edge="1">
          <mxGeometry relative="1" as="geometry">
            <mxPoint x="-792.5" y="-626" as="sourcePoint" />
            <mxPoint x="-837.5" y="-600" as="targetPoint" />
          </mxGeometry>
        </mxCell>
        <mxCell id="hqlPJ9sTbHjb_ISFIXqj-178" value="" style="endArrow=none;html=1;rounded=0;entryX=0;entryY=0;entryDx=0;entryDy=0;exitX=0.913;exitY=1.059;exitDx=0;exitDy=0;exitPerimeter=0;" parent="1" target="hqlPJ9sTbHjb_ISFIXqj-168" edge="1">
          <mxGeometry relative="1" as="geometry">
            <mxPoint x="-766.5" y="-676" as="sourcePoint" />
            <mxPoint x="-712.5" y="-592" as="targetPoint" />
          </mxGeometry>
        </mxCell>
        <mxCell id="hqlPJ9sTbHjb_ISFIXqj-179" value="" style="endArrow=none;html=1;rounded=0;entryX=0;entryY=0.5;entryDx=0;entryDy=0;exitX=0.913;exitY=1.059;exitDx=0;exitDy=0;exitPerimeter=0;" parent="1" target="hqlPJ9sTbHjb_ISFIXqj-171" edge="1">
          <mxGeometry relative="1" as="geometry">
            <mxPoint x="-782.5" y="-676" as="sourcePoint" />
            <mxPoint x="-713.5" y="-530" as="targetPoint" />
          </mxGeometry>
        </mxCell>
        <mxCell id="hqlPJ9sTbHjb_ISFIXqj-180" value="Cliente" style="ellipse;whiteSpace=wrap;html=1;align=center;" parent="1" vertex="1">
          <mxGeometry x="-442.5" y="-610" width="100" height="40" as="geometry" />
        </mxCell>
        <mxCell id="hqlPJ9sTbHjb_ISFIXqj-181" value="Fecha&lt;div&gt;Cotización&lt;/div&gt;" style="ellipse;whiteSpace=wrap;html=1;align=center;" parent="1" vertex="1">
          <mxGeometry x="-442.5" y="-540" width="100" height="40" as="geometry" />
        </mxCell>
        <mxCell id="hqlPJ9sTbHjb_ISFIXqj-182" value="MesProyectado&lt;div&gt;Cierre&lt;/div&gt;" style="ellipse;whiteSpace=wrap;html=1;align=center;" parent="1" vertex="1">
          <mxGeometry x="-442.5" y="-470" width="100" height="40" as="geometry" />
        </mxCell>
        <mxCell id="hqlPJ9sTbHjb_ISFIXqj-183" value="Usuario/vendedor" style="ellipse;whiteSpace=wrap;html=1;align=center;" parent="1" vertex="1">
          <mxGeometry x="-442.5" y="-400" width="100" height="40" as="geometry" />
        </mxCell>
        <mxCell id="hqlPJ9sTbHjb_ISFIXqj-184" value="CierreFinal" style="ellipse;whiteSpace=wrap;html=1;align=center;" parent="1" vertex="1">
          <mxGeometry x="-442.5" y="-330" width="100" height="40" as="geometry" />
        </mxCell>
        <mxCell id="hqlPJ9sTbHjb_ISFIXqj-185" value="Probabilidad" style="ellipse;whiteSpace=wrap;html=1;align=center;" parent="1" vertex="1">
          <mxGeometry x="-192.5" y="-330" width="100" height="40" as="geometry" />
        </mxCell>
        <mxCell id="hqlPJ9sTbHjb_ISFIXqj-186" value="OrdenDeCompra" style="ellipse;whiteSpace=wrap;html=1;align=center;" parent="1" vertex="1">
          <mxGeometry x="-187.5" y="-670" width="100" height="40" as="geometry" />
        </mxCell>
        <mxCell id="hqlPJ9sTbHjb_ISFIXqj-187" value="#cotizacion" style="ellipse;whiteSpace=wrap;html=1;align=center;" parent="1" vertex="1">
          <mxGeometry x="-437.5" y="-670" width="100" height="40" as="geometry" />
        </mxCell>
        <mxCell id="hqlPJ9sTbHjb_ISFIXqj-188" value="Zona" style="ellipse;whiteSpace=wrap;html=1;align=center;" parent="1" vertex="1">
          <mxGeometry x="-192.5" y="-470" width="100" height="40" as="geometry" />
        </mxCell>
        <mxCell id="hqlPJ9sTbHjb_ISFIXqj-189" value="Sector" style="ellipse;whiteSpace=wrap;html=1;align=center;" parent="1" vertex="1">
          <mxGeometry x="-192.5" y="-540" width="100" height="40" as="geometry" />
        </mxCell>
        <mxCell id="hqlPJ9sTbHjb_ISFIXqj-190" value="Estado" style="ellipse;whiteSpace=wrap;html=1;align=center;" parent="1" vertex="1">
          <mxGeometry x="-192.5" y="-400" width="100" height="40" as="geometry" />
        </mxCell>
        <mxCell id="hqlPJ9sTbHjb_ISFIXqj-191" value="Cotizacion" style="whiteSpace=wrap;html=1;align=center;" parent="1" vertex="1">
          <mxGeometry x="-317.5" y="-730" width="100" height="40" as="geometry" />
        </mxCell>
        <mxCell id="hqlPJ9sTbHjb_ISFIXqj-192" value="TipoCotizacion" style="ellipse;whiteSpace=wrap;html=1;align=center;" parent="1" vertex="1">
          <mxGeometry x="-192.5" y="-610" width="100" height="40" as="geometry" />
        </mxCell>
        <mxCell id="hqlPJ9sTbHjb_ISFIXqj-193" value="" style="endArrow=none;html=1;rounded=0;entryX=1;entryY=0;entryDx=0;entryDy=0;exitX=0;exitY=1;exitDx=0;exitDy=0;" parent="1" source="hqlPJ9sTbHjb_ISFIXqj-191" target="hqlPJ9sTbHjb_ISFIXqj-187" edge="1">
          <mxGeometry relative="1" as="geometry">
            <mxPoint x="-282.5" y="-663" as="sourcePoint" />
            <mxPoint x="-327.5" y="-637" as="targetPoint" />
          </mxGeometry>
        </mxCell>
        <mxCell id="hqlPJ9sTbHjb_ISFIXqj-194" value="" style="endArrow=none;html=1;rounded=0;entryX=1;entryY=0;entryDx=0;entryDy=0;exitX=0.069;exitY=1.029;exitDx=0;exitDy=0;exitPerimeter=0;" parent="1" source="hqlPJ9sTbHjb_ISFIXqj-191" target="hqlPJ9sTbHjb_ISFIXqj-180" edge="1">
          <mxGeometry relative="1" as="geometry">
            <mxPoint x="-292.5" y="-636" as="sourcePoint" />
            <mxPoint x="-327.5" y="-610" as="targetPoint" />
          </mxGeometry>
        </mxCell>
        <mxCell id="hqlPJ9sTbHjb_ISFIXqj-195" value="" style="endArrow=none;html=1;rounded=0;entryX=0.904;entryY=0.252;entryDx=0;entryDy=0;exitX=0.146;exitY=1.038;exitDx=0;exitDy=0;exitPerimeter=0;entryPerimeter=0;" parent="1" source="hqlPJ9sTbHjb_ISFIXqj-191" target="hqlPJ9sTbHjb_ISFIXqj-181" edge="1">
          <mxGeometry relative="1" as="geometry">
            <mxPoint x="-295.5" y="-685" as="sourcePoint" />
            <mxPoint x="-337.5" y="-580" as="targetPoint" />
          </mxGeometry>
        </mxCell>
        <mxCell id="hqlPJ9sTbHjb_ISFIXqj-196" value="" style="endArrow=none;html=1;rounded=0;entryX=1;entryY=0.5;entryDx=0;entryDy=0;exitX=0.25;exitY=1;exitDx=0;exitDy=0;" parent="1" source="hqlPJ9sTbHjb_ISFIXqj-191" target="hqlPJ9sTbHjb_ISFIXqj-182" edge="1">
          <mxGeometry relative="1" as="geometry">
            <mxPoint x="-291.5" y="-678" as="sourcePoint" />
            <mxPoint x="-337.5" y="-500" as="targetPoint" />
          </mxGeometry>
        </mxCell>
        <mxCell id="hqlPJ9sTbHjb_ISFIXqj-197" value="" style="endArrow=none;html=1;rounded=0;entryX=0.938;entryY=0.22;entryDx=0;entryDy=0;exitX=0.341;exitY=1.015;exitDx=0;exitDy=0;exitPerimeter=0;entryPerimeter=0;" parent="1" source="hqlPJ9sTbHjb_ISFIXqj-191" target="hqlPJ9sTbHjb_ISFIXqj-183" edge="1">
          <mxGeometry relative="1" as="geometry">
            <mxPoint x="-282.5" y="-680" as="sourcePoint" />
            <mxPoint x="-327.5" y="-420" as="targetPoint" />
          </mxGeometry>
        </mxCell>
        <mxCell id="hqlPJ9sTbHjb_ISFIXqj-198" value="" style="endArrow=none;html=1;rounded=0;entryX=1;entryY=0.5;entryDx=0;entryDy=0;exitX=0.415;exitY=1.059;exitDx=0;exitDy=0;exitPerimeter=0;" parent="1" source="hqlPJ9sTbHjb_ISFIXqj-191" target="hqlPJ9sTbHjb_ISFIXqj-184" edge="1">
          <mxGeometry relative="1" as="geometry">
            <mxPoint x="-273.5" y="-679" as="sourcePoint" />
            <mxPoint x="-333.5" y="-361" as="targetPoint" />
          </mxGeometry>
        </mxCell>
        <mxCell id="hqlPJ9sTbHjb_ISFIXqj-199" value="" style="endArrow=none;html=1;rounded=0;entryX=0;entryY=0;entryDx=0;entryDy=0;exitX=1;exitY=1;exitDx=0;exitDy=0;" parent="1" source="hqlPJ9sTbHjb_ISFIXqj-191" target="hqlPJ9sTbHjb_ISFIXqj-186" edge="1">
          <mxGeometry relative="1" as="geometry">
            <mxPoint x="-214.5" y="-676" as="sourcePoint" />
            <mxPoint x="-249.5" y="-650" as="targetPoint" />
          </mxGeometry>
        </mxCell>
        <mxCell id="hqlPJ9sTbHjb_ISFIXqj-200" value="" style="endArrow=none;html=1;rounded=0;entryX=0;entryY=0;entryDx=0;entryDy=0;exitX=0.938;exitY=1.061;exitDx=0;exitDy=0;exitPerimeter=0;" parent="1" source="hqlPJ9sTbHjb_ISFIXqj-191" target="hqlPJ9sTbHjb_ISFIXqj-192" edge="1">
          <mxGeometry relative="1" as="geometry">
            <mxPoint x="-227.5" y="-676" as="sourcePoint" />
            <mxPoint x="-182.5" y="-650" as="targetPoint" />
          </mxGeometry>
        </mxCell>
        <mxCell id="hqlPJ9sTbHjb_ISFIXqj-201" value="" style="endArrow=none;html=1;rounded=0;entryX=0;entryY=0;entryDx=0;entryDy=0;exitX=0.938;exitY=1.061;exitDx=0;exitDy=0;exitPerimeter=0;" parent="1" target="hqlPJ9sTbHjb_ISFIXqj-189" edge="1">
          <mxGeometry relative="1" as="geometry">
            <mxPoint x="-232.5" y="-690" as="sourcePoint" />
            <mxPoint x="-181.5" y="-586" as="targetPoint" />
          </mxGeometry>
        </mxCell>
        <mxCell id="hqlPJ9sTbHjb_ISFIXqj-202" value="" style="endArrow=none;html=1;rounded=0;entryX=0.064;entryY=0.324;entryDx=0;entryDy=0;exitX=0.803;exitY=1.018;exitDx=0;exitDy=0;exitPerimeter=0;entryPerimeter=0;" parent="1" source="hqlPJ9sTbHjb_ISFIXqj-191" target="hqlPJ9sTbHjb_ISFIXqj-188" edge="1">
          <mxGeometry relative="1" as="geometry">
            <mxPoint x="-232.5" y="-676" as="sourcePoint" />
            <mxPoint x="-172.5" y="-500" as="targetPoint" />
          </mxGeometry>
        </mxCell>
        <mxCell id="hqlPJ9sTbHjb_ISFIXqj-203" value="" style="endArrow=none;html=1;rounded=0;entryX=0.048;entryY=0.31;entryDx=0;entryDy=0;exitX=0.803;exitY=1.018;exitDx=0;exitDy=0;exitPerimeter=0;entryPerimeter=0;" parent="1" target="hqlPJ9sTbHjb_ISFIXqj-190" edge="1">
          <mxGeometry relative="1" as="geometry">
            <mxPoint x="-243.5" y="-690" as="sourcePoint" />
            <mxPoint x="-187.5" y="-438" as="targetPoint" />
          </mxGeometry>
        </mxCell>
        <mxCell id="hqlPJ9sTbHjb_ISFIXqj-204" value="" style="endArrow=none;html=1;rounded=0;entryX=0.048;entryY=0.31;entryDx=0;entryDy=0;exitX=0.803;exitY=1.018;exitDx=0;exitDy=0;exitPerimeter=0;entryPerimeter=0;" parent="1" target="hqlPJ9sTbHjb_ISFIXqj-185" edge="1">
          <mxGeometry relative="1" as="geometry">
            <mxPoint x="-248.5" y="-690" as="sourcePoint" />
            <mxPoint x="-187.5" y="-368" as="targetPoint" />
          </mxGeometry>
        </mxCell>
        <mxCell id="hqlPJ9sTbHjb_ISFIXqj-205" value="" style="fontSize=12;html=1;endArrow=ERoneToMany;rounded=0;entryX=0;entryY=0.75;entryDx=0;entryDy=0;exitX=1;exitY=0.5;exitDx=0;exitDy=0;" parent="1" source="hqlPJ9sTbHjb_ISFIXqj-208" target="hqlPJ9sTbHjb_ISFIXqj-191" edge="1">
          <mxGeometry width="100" height="100" relative="1" as="geometry">
            <mxPoint x="-497.5" y="-700" as="sourcePoint" />
            <mxPoint x="-367.5" y="-700" as="targetPoint" />
            <Array as="points" />
          </mxGeometry>
        </mxCell>
        <mxCell id="hqlPJ9sTbHjb_ISFIXqj-206" value="ListaArticulos" style="ellipse;whiteSpace=wrap;html=1;align=center;" parent="1" vertex="1">
          <mxGeometry x="-157.5" y="-760" width="100" height="40" as="geometry" />
        </mxCell>
        <mxCell id="hqlPJ9sTbHjb_ISFIXqj-207" value="" style="endArrow=none;html=1;rounded=0;entryX=0.048;entryY=0.741;entryDx=0;entryDy=0;exitX=1;exitY=0;exitDx=0;exitDy=0;entryPerimeter=0;" parent="1" source="hqlPJ9sTbHjb_ISFIXqj-191" target="hqlPJ9sTbHjb_ISFIXqj-206" edge="1">
          <mxGeometry relative="1" as="geometry">
            <mxPoint x="-212.5" y="-756" as="sourcePoint" />
            <mxPoint x="-167.5" y="-730" as="targetPoint" />
          </mxGeometry>
        </mxCell>
        <mxCell id="hqlPJ9sTbHjb_ISFIXqj-208" value="Realiza" style="shape=rhombus;perimeter=rhombusPerimeter;whiteSpace=wrap;html=1;align=center;" parent="1" vertex="1">
          <mxGeometry x="-645" y="-730" width="120" height="60" as="geometry" />
        </mxCell>
        <mxCell id="hqlPJ9sTbHjb_ISFIXqj-209" value="" style="endArrow=none;html=1;rounded=0;entryX=0;entryY=0.5;entryDx=0;entryDy=0;exitX=1;exitY=0.5;exitDx=0;exitDy=0;" parent="1" source="hqlPJ9sTbHjb_ISFIXqj-163" target="hqlPJ9sTbHjb_ISFIXqj-208" edge="1">
          <mxGeometry relative="1" as="geometry">
            <mxPoint x="-685" y="-702" as="sourcePoint" />
            <mxPoint x="-612.5" y="-690" as="targetPoint" />
          </mxGeometry>
        </mxCell>
        <mxCell id="hqlPJ9sTbHjb_ISFIXqj-210" value="Puede generar" style="shape=rhombus;perimeter=rhombusPerimeter;whiteSpace=wrap;html=1;align=center;" parent="1" vertex="1">
          <mxGeometry x="-500" y="-958" width="120" height="60" as="geometry" />
        </mxCell>
        <mxCell id="hqlPJ9sTbHjb_ISFIXqj-211" value="Puede tener" style="shape=rhombus;perimeter=rhombusPerimeter;whiteSpace=wrap;html=1;align=center;" parent="1" vertex="1">
          <mxGeometry x="-345" y="-1210" width="120" height="60" as="geometry" />
        </mxCell>
        <mxCell id="hqlPJ9sTbHjb_ISFIXqj-212" value="" style="endArrow=none;html=1;rounded=0;entryX=1;entryY=0.5;entryDx=0;entryDy=0;" parent="1" target="hqlPJ9sTbHjb_ISFIXqj-128" edge="1">
          <mxGeometry relative="1" as="geometry">
            <mxPoint x="-350" y="-1180" as="sourcePoint" />
            <mxPoint x="-380" y="-1204" as="targetPoint" />
          </mxGeometry>
        </mxCell>
        <mxCell id="hqlPJ9sTbHjb_ISFIXqj-213" value="" style="endArrow=none;html=1;rounded=0;entryX=0;entryY=0;entryDx=0;entryDy=0;exitX=0.5;exitY=1;exitDx=0;exitDy=0;" parent="1" source="hqlPJ9sTbHjb_ISFIXqj-210" target="hqlPJ9sTbHjb_ISFIXqj-191" edge="1">
          <mxGeometry relative="1" as="geometry">
            <mxPoint x="-424" y="-760" as="sourcePoint" />
            <mxPoint x="-360" y="-760" as="targetPoint" />
          </mxGeometry>
        </mxCell>
        <mxCell id="hqlPJ9sTbHjb_ISFIXqj-215" value="" style="fontSize=12;html=1;endArrow=ERoneToMany;rounded=0;entryX=0.5;entryY=1;entryDx=0;entryDy=0;exitX=0.5;exitY=0;exitDx=0;exitDy=0;" parent="1" source="hqlPJ9sTbHjb_ISFIXqj-210" target="hqlPJ9sTbHjb_ISFIXqj-128" edge="1">
          <mxGeometry width="100" height="100" relative="1" as="geometry">
            <mxPoint x="-498" y="-909.25" as="sourcePoint" />
            <mxPoint x="-317.5" y="-909.25" as="targetPoint" />
            <Array as="points" />
          </mxGeometry>
        </mxCell>
        <mxCell id="hqlPJ9sTbHjb_ISFIXqj-216" value="Puede asociarse" style="shape=rhombus;perimeter=rhombusPerimeter;whiteSpace=wrap;html=1;align=center;" parent="1" vertex="1">
          <mxGeometry x="-140" y="-958" width="120" height="60" as="geometry" />
        </mxCell>
        <mxCell id="hqlPJ9sTbHjb_ISFIXqj-217" value="" style="endArrow=none;html=1;rounded=0;entryX=0.5;entryY=1;entryDx=0;entryDy=0;exitX=1;exitY=0;exitDx=0;exitDy=0;" parent="1" source="hqlPJ9sTbHjb_ISFIXqj-191" target="hqlPJ9sTbHjb_ISFIXqj-216" edge="1">
          <mxGeometry relative="1" as="geometry">
            <mxPoint x="-289" y="-780" as="sourcePoint" />
            <mxPoint x="-225" y="-780" as="targetPoint" />
          </mxGeometry>
        </mxCell>
        <mxCell id="hqlPJ9sTbHjb_ISFIXqj-218" value="" style="fontSize=12;html=1;endArrow=ERoneToMany;rounded=0;entryX=0.5;entryY=1;entryDx=0;entryDy=0;exitX=0.5;exitY=0;exitDx=0;exitDy=0;" parent="1" source="hqlPJ9sTbHjb_ISFIXqj-216" edge="1">
          <mxGeometry width="100" height="100" relative="1" as="geometry">
            <mxPoint x="-80" y="-955" as="sourcePoint" />
            <mxPoint x="-80" y="-1157" as="targetPoint" />
            <Array as="points" />
          </mxGeometry>
        </mxCell>
        <mxCell id="hqlPJ9sTbHjb_ISFIXqj-219" value="" style="endArrow=none;html=1;rounded=0;entryX=0;entryY=0;entryDx=0;entryDy=0;exitX=0.5;exitY=1;exitDx=0;exitDy=0;" parent="1" source="hqlPJ9sTbHjb_ISFIXqj-220" target="hqlPJ9sTbHjb_ISFIXqj-40" edge="1">
          <mxGeometry relative="1" as="geometry">
            <mxPoint y="-540" as="sourcePoint" />
            <mxPoint x="195" y="-300" as="targetPoint" />
            <Array as="points">
              <mxPoint y="-250" />
              <mxPoint x="100" y="-250" />
            </Array>
          </mxGeometry>
        </mxCell>
        <mxCell id="hqlPJ9sTbHjb_ISFIXqj-220" value="Aplica" style="shape=rhombus;perimeter=rhombusPerimeter;whiteSpace=wrap;html=1;align=center;" parent="1" vertex="1">
          <mxGeometry x="-57.5" y="-600" width="120" height="60" as="geometry" />
        </mxCell>
        <mxCell id="hqlPJ9sTbHjb_ISFIXqj-221" value="" style="fontSize=12;html=1;endArrow=ERoneToMany;rounded=0;exitX=0.5;exitY=0;exitDx=0;exitDy=0;entryX=0.75;entryY=1;entryDx=0;entryDy=0;" parent="1" source="hqlPJ9sTbHjb_ISFIXqj-278" target="hqlPJ9sTbHjb_ISFIXqj-150" edge="1">
          <mxGeometry width="100" height="100" relative="1" as="geometry">
            <mxPoint x="30" y="-700" as="sourcePoint" />
            <mxPoint x="160" y="-920" as="targetPoint" />
            <Array as="points">
              <mxPoint x="80" y="-730" />
            </Array>
          </mxGeometry>
        </mxCell>
        <mxCell id="hqlPJ9sTbHjb_ISFIXqj-222" value="Factura" style="whiteSpace=wrap;html=1;align=center;" parent="1" vertex="1">
          <mxGeometry x="-312.5" y="-232.5" width="100" height="40" as="geometry" />
        </mxCell>
        <mxCell id="hqlPJ9sTbHjb_ISFIXqj-223" value="NumeroFactura" style="ellipse;whiteSpace=wrap;html=1;align=center;" parent="1" vertex="1">
          <mxGeometry x="-412.5" y="-152.5" width="100" height="40" as="geometry" />
        </mxCell>
        <mxCell id="hqlPJ9sTbHjb_ISFIXqj-224" value="NombreLocal" style="ellipse;whiteSpace=wrap;html=1;align=center;" parent="1" vertex="1">
          <mxGeometry x="-412.5" y="-78.5" width="100" height="40" as="geometry" />
        </mxCell>
        <mxCell id="hqlPJ9sTbHjb_ISFIXqj-225" value="CedulaJuridica&lt;div&gt;Local&lt;/div&gt;" style="ellipse;whiteSpace=wrap;html=1;align=center;" parent="1" vertex="1">
          <mxGeometry x="-412.5" y="-14.5" width="100" height="40" as="geometry" />
        </mxCell>
        <mxCell id="hqlPJ9sTbHjb_ISFIXqj-226" value="Telefonos&lt;div&gt;Local&lt;/div&gt;" style="ellipse;shape=doubleEllipse;margin=3;whiteSpace=wrap;html=1;align=center;" parent="1" vertex="1">
          <mxGeometry x="-412.5" y="55.5" width="100" height="40" as="geometry" />
        </mxCell>
        <mxCell id="hqlPJ9sTbHjb_ISFIXqj-227" value="CedulaCliente" style="ellipse;whiteSpace=wrap;html=1;align=center;" parent="1" vertex="1">
          <mxGeometry x="-212.5" y="-152.5" width="100" height="40" as="geometry" />
        </mxCell>
        <mxCell id="hqlPJ9sTbHjb_ISFIXqj-228" value="NombreCliente" style="ellipse;whiteSpace=wrap;html=1;align=center;" parent="1" vertex="1">
          <mxGeometry x="-212.5" y="-78.5" width="100" height="40" as="geometry" />
        </mxCell>
        <mxCell id="hqlPJ9sTbHjb_ISFIXqj-229" value="Vendedor" style="ellipse;whiteSpace=wrap;html=1;align=center;" parent="1" vertex="1">
          <mxGeometry x="-207.5" y="-14.5" width="100" height="40" as="geometry" />
        </mxCell>
        <mxCell id="hqlPJ9sTbHjb_ISFIXqj-230" value="FechaFactura" style="ellipse;whiteSpace=wrap;html=1;align=center;" parent="1" vertex="1">
          <mxGeometry x="-207.5" y="65.5" width="100" height="40" as="geometry" />
        </mxCell>
        <mxCell id="hqlPJ9sTbHjb_ISFIXqj-231" value="" style="endArrow=none;html=1;rounded=0;entryX=0;entryY=1;entryDx=0;entryDy=0;exitX=1;exitY=0;exitDx=0;exitDy=0;" parent="1" source="hqlPJ9sTbHjb_ISFIXqj-223" target="hqlPJ9sTbHjb_ISFIXqj-222" edge="1">
          <mxGeometry relative="1" as="geometry">
            <mxPoint x="-252.5" y="11.5" as="sourcePoint" />
            <mxPoint x="-252.5" y="-118.5" as="targetPoint" />
          </mxGeometry>
        </mxCell>
        <mxCell id="hqlPJ9sTbHjb_ISFIXqj-232" value="" style="endArrow=none;html=1;rounded=0;entryX=0.092;entryY=1.072;entryDx=0;entryDy=0;exitX=1;exitY=0.5;exitDx=0;exitDy=0;entryPerimeter=0;" parent="1" source="hqlPJ9sTbHjb_ISFIXqj-224" target="hqlPJ9sTbHjb_ISFIXqj-222" edge="1">
          <mxGeometry relative="1" as="geometry">
            <mxPoint x="-292.5" y="-125.5" as="sourcePoint" />
            <mxPoint x="-277.5" y="-171.5" as="targetPoint" />
          </mxGeometry>
        </mxCell>
        <mxCell id="hqlPJ9sTbHjb_ISFIXqj-233" value="" style="endArrow=none;html=1;rounded=0;entryX=0.25;entryY=1;entryDx=0;entryDy=0;exitX=1;exitY=0.5;exitDx=0;exitDy=0;" parent="1" source="hqlPJ9sTbHjb_ISFIXqj-225" target="hqlPJ9sTbHjb_ISFIXqj-222" edge="1">
          <mxGeometry relative="1" as="geometry">
            <mxPoint x="-302.5" y="-48.5" as="sourcePoint" />
            <mxPoint x="-293.5" y="-179.5" as="targetPoint" />
          </mxGeometry>
        </mxCell>
        <mxCell id="hqlPJ9sTbHjb_ISFIXqj-234" value="" style="endArrow=none;html=1;rounded=0;entryX=0.328;entryY=1.055;entryDx=0;entryDy=0;exitX=1.016;exitY=0.4;exitDx=0;exitDy=0;entryPerimeter=0;exitPerimeter=0;" parent="1" source="hqlPJ9sTbHjb_ISFIXqj-226" target="hqlPJ9sTbHjb_ISFIXqj-222" edge="1">
          <mxGeometry relative="1" as="geometry">
            <mxPoint x="-302.5" y="15.5" as="sourcePoint" />
            <mxPoint x="-277.5" y="-182.5" as="targetPoint" />
          </mxGeometry>
        </mxCell>
        <mxCell id="hqlPJ9sTbHjb_ISFIXqj-235" value="" style="endArrow=none;html=1;rounded=0;entryX=0.092;entryY=1.072;entryDx=0;entryDy=0;exitX=0;exitY=0;exitDx=0;exitDy=0;entryPerimeter=0;" parent="1" source="hqlPJ9sTbHjb_ISFIXqj-227" edge="1">
          <mxGeometry relative="1" as="geometry">
            <mxPoint x="-221.5" y="-67" as="sourcePoint" />
            <mxPoint x="-212.5" y="-198" as="targetPoint" />
          </mxGeometry>
        </mxCell>
        <mxCell id="hqlPJ9sTbHjb_ISFIXqj-236" value="" style="endArrow=none;html=1;rounded=0;entryX=0.092;entryY=1.072;entryDx=0;entryDy=0;exitX=0;exitY=0;exitDx=0;exitDy=0;entryPerimeter=0;" parent="1" source="hqlPJ9sTbHjb_ISFIXqj-228" edge="1">
          <mxGeometry relative="1" as="geometry">
            <mxPoint x="-227.5" y="-138.5" as="sourcePoint" />
            <mxPoint x="-232.5" y="-190" as="targetPoint" />
          </mxGeometry>
        </mxCell>
        <mxCell id="hqlPJ9sTbHjb_ISFIXqj-237" value="" style="endArrow=none;html=1;rounded=0;entryX=0.092;entryY=1.072;entryDx=0;entryDy=0;exitX=0;exitY=0.5;exitDx=0;exitDy=0;entryPerimeter=0;" parent="1" source="hqlPJ9sTbHjb_ISFIXqj-229" edge="1">
          <mxGeometry relative="1" as="geometry">
            <mxPoint x="-207.5" y="-73.75" as="sourcePoint" />
            <mxPoint x="-242.5" y="-191.25" as="targetPoint" />
          </mxGeometry>
        </mxCell>
        <mxCell id="hqlPJ9sTbHjb_ISFIXqj-238" value="" style="endArrow=none;html=1;rounded=0;entryX=0.092;entryY=1.072;entryDx=0;entryDy=0;exitX=0;exitY=0.5;exitDx=0;exitDy=0;entryPerimeter=0;" parent="1" source="hqlPJ9sTbHjb_ISFIXqj-230" edge="1">
          <mxGeometry relative="1" as="geometry">
            <mxPoint x="-217.5" y="6.5" as="sourcePoint" />
            <mxPoint x="-252.5" y="-190.25" as="targetPoint" />
          </mxGeometry>
        </mxCell>
        <mxCell id="hqlPJ9sTbHjb_ISFIXqj-239" value="Se convierte en" style="shape=rhombus;perimeter=rhombusPerimeter;whiteSpace=wrap;html=1;align=center;" parent="1" vertex="1">
          <mxGeometry x="-322.5" y="-380" width="120" height="60" as="geometry" />
        </mxCell>
        <mxCell id="hqlPJ9sTbHjb_ISFIXqj-240" value="" style="endArrow=none;html=1;rounded=0;entryX=0.525;entryY=1.024;entryDx=0;entryDy=0;exitX=0.5;exitY=0;exitDx=0;exitDy=0;entryPerimeter=0;" parent="1" source="hqlPJ9sTbHjb_ISFIXqj-239" target="hqlPJ9sTbHjb_ISFIXqj-191" edge="1">
          <mxGeometry relative="1" as="geometry">
            <mxPoint x="-270" y="-503.5" as="sourcePoint" />
            <mxPoint x="-255" y="-548.5" as="targetPoint" />
          </mxGeometry>
        </mxCell>
        <mxCell id="hqlPJ9sTbHjb_ISFIXqj-241" value="" style="fontSize=12;html=1;endArrow=ERoneToMany;rounded=0;entryX=0.5;entryY=0;entryDx=0;entryDy=0;exitX=0.5;exitY=1;exitDx=0;exitDy=0;" parent="1" source="hqlPJ9sTbHjb_ISFIXqj-239" target="hqlPJ9sTbHjb_ISFIXqj-222" edge="1">
          <mxGeometry width="100" height="100" relative="1" as="geometry">
            <mxPoint x="-252.75" y="-253.5" as="sourcePoint" />
            <mxPoint x="-72.25" y="-253.5" as="targetPoint" />
            <Array as="points" />
          </mxGeometry>
        </mxCell>
        <mxCell id="hqlPJ9sTbHjb_ISFIXqj-242" value="CodigoProducto&amp;nbsp;" style="ellipse;whiteSpace=wrap;html=1;align=center;" parent="1" vertex="1">
          <mxGeometry x="-450" y="325" width="100" height="40" as="geometry" />
        </mxCell>
        <mxCell id="hqlPJ9sTbHjb_ISFIXqj-243" value="ListaArticulos" style="whiteSpace=wrap;html=1;align=center;" parent="1" vertex="1">
          <mxGeometry x="-325" y="235" width="130" height="50" as="geometry" />
        </mxCell>
        <mxCell id="hqlPJ9sTbHjb_ISFIXqj-244" value="Cantidad" style="ellipse;whiteSpace=wrap;html=1;align=center;" parent="1" vertex="1">
          <mxGeometry x="-200" y="340" width="100" height="40" as="geometry" />
        </mxCell>
        <mxCell id="hqlPJ9sTbHjb_ISFIXqj-245" value="" style="endArrow=none;html=1;rounded=0;entryX=0;entryY=1;entryDx=0;entryDy=0;exitX=0.725;exitY=0.025;exitDx=0;exitDy=0;exitPerimeter=0;" parent="1" source="hqlPJ9sTbHjb_ISFIXqj-242" target="hqlPJ9sTbHjb_ISFIXqj-243" edge="1">
          <mxGeometry relative="1" as="geometry">
            <mxPoint x="-400" y="341" as="sourcePoint" />
            <mxPoint x="-345" y="295" as="targetPoint" />
          </mxGeometry>
        </mxCell>
        <mxCell id="hqlPJ9sTbHjb_ISFIXqj-246" value="" style="endArrow=none;html=1;rounded=0;entryX=0.936;entryY=1.037;entryDx=0;entryDy=0;exitX=0.375;exitY=0.001;exitDx=0;exitDy=0;entryPerimeter=0;exitPerimeter=0;" parent="1" source="hqlPJ9sTbHjb_ISFIXqj-244" target="hqlPJ9sTbHjb_ISFIXqj-243" edge="1">
          <mxGeometry relative="1" as="geometry">
            <mxPoint x="-277.5" y="341" as="sourcePoint" />
            <mxPoint x="-215" y="295" as="targetPoint" />
          </mxGeometry>
        </mxCell>
        <mxCell id="hqlPJ9sTbHjb_ISFIXqj-247" value="Factura" style="ellipse;whiteSpace=wrap;html=1;align=center;" parent="1" vertex="1">
          <mxGeometry x="-345" y="340" width="100" height="40" as="geometry" />
        </mxCell>
        <mxCell id="hqlPJ9sTbHjb_ISFIXqj-248" value="" style="endArrow=none;html=1;rounded=0;entryX=0.5;entryY=1;entryDx=0;entryDy=0;exitX=0.5;exitY=0;exitDx=0;exitDy=0;" parent="1" source="hqlPJ9sTbHjb_ISFIXqj-247" target="hqlPJ9sTbHjb_ISFIXqj-243" edge="1">
          <mxGeometry relative="1" as="geometry">
            <mxPoint x="-220" y="365" as="sourcePoint" />
            <mxPoint x="-250" y="314" as="targetPoint" />
          </mxGeometry>
        </mxCell>
        <mxCell id="hqlPJ9sTbHjb_ISFIXqj-249" value="CodigoBodega" style="ellipse;whiteSpace=wrap;html=1;align=center;" parent="1" vertex="1">
          <mxGeometry x="-120" y="285" width="100" height="40" as="geometry" />
        </mxCell>
        <mxCell id="hqlPJ9sTbHjb_ISFIXqj-250" value="" style="endArrow=none;html=1;rounded=0;entryX=1;entryY=0.75;entryDx=0;entryDy=0;exitX=0;exitY=0;exitDx=0;exitDy=0;" parent="1" source="hqlPJ9sTbHjb_ISFIXqj-249" target="hqlPJ9sTbHjb_ISFIXqj-243" edge="1">
          <mxGeometry relative="1" as="geometry">
            <mxPoint x="-145" y="325" as="sourcePoint" />
            <mxPoint x="-175" y="274" as="targetPoint" />
          </mxGeometry>
        </mxCell>
        <mxCell id="hqlPJ9sTbHjb_ISFIXqj-251" value="Contiene" style="shape=rhombus;perimeter=rhombusPerimeter;whiteSpace=wrap;html=1;align=center;" parent="1" vertex="1">
          <mxGeometry x="-320" y="95.5" width="120" height="60" as="geometry" />
        </mxCell>
        <mxCell id="hqlPJ9sTbHjb_ISFIXqj-252" value="" style="endArrow=none;html=1;rounded=0;entryX=0.5;entryY=1;entryDx=0;entryDy=0;exitX=0.5;exitY=0;exitDx=0;exitDy=0;" parent="1" source="hqlPJ9sTbHjb_ISFIXqj-251" target="hqlPJ9sTbHjb_ISFIXqj-222" edge="1">
          <mxGeometry relative="1" as="geometry">
            <mxPoint x="-225" y="95.5" as="sourcePoint" />
            <mxPoint x="-270.5" y="-180.75" as="targetPoint" />
          </mxGeometry>
        </mxCell>
        <mxCell id="hqlPJ9sTbHjb_ISFIXqj-253" value="" style="fontSize=12;html=1;endArrow=ERoneToMany;rounded=0;entryX=0.636;entryY=0.055;entryDx=0;entryDy=0;exitX=0.5;exitY=1;exitDx=0;exitDy=0;entryPerimeter=0;" parent="1" source="hqlPJ9sTbHjb_ISFIXqj-269" target="hqlPJ9sTbHjb_ISFIXqj-254" edge="1">
          <mxGeometry width="100" height="100" relative="1" as="geometry">
            <mxPoint x="218.75" y="31.5" as="sourcePoint" />
            <mxPoint x="218.75" y="119.5" as="targetPoint" />
            <Array as="points" />
          </mxGeometry>
        </mxCell>
        <mxCell id="hqlPJ9sTbHjb_ISFIXqj-254" value="MovimientoInventario" style="whiteSpace=wrap;html=1;align=center;" parent="1" vertex="1">
          <mxGeometry x="140" y="295" width="130" height="50" as="geometry" />
        </mxCell>
        <mxCell id="hqlPJ9sTbHjb_ISFIXqj-255" value="FechaHora" style="ellipse;whiteSpace=wrap;html=1;align=center;" parent="1" vertex="1">
          <mxGeometry x="50" y="460" width="100" height="40" as="geometry" />
        </mxCell>
        <mxCell id="hqlPJ9sTbHjb_ISFIXqj-256" value="Usuario" style="ellipse;whiteSpace=wrap;html=1;align=center;" parent="1" vertex="1">
          <mxGeometry x="70" y="500" width="100" height="40" as="geometry" />
        </mxCell>
        <mxCell id="hqlPJ9sTbHjb_ISFIXqj-257" value="BodegaDestino" style="ellipse;whiteSpace=wrap;html=1;align=center;" parent="1" vertex="1">
          <mxGeometry x="270" y="395" width="100" height="40" as="geometry" />
        </mxCell>
        <mxCell id="hqlPJ9sTbHjb_ISFIXqj-258" value="BodegaOrigen" style="ellipse;whiteSpace=wrap;html=1;align=center;" parent="1" vertex="1">
          <mxGeometry x="260" y="485" width="100" height="40" as="geometry" />
        </mxCell>
        <mxCell id="hqlPJ9sTbHjb_ISFIXqj-259" value="" style="endArrow=none;html=1;rounded=0;entryX=0;entryY=1;entryDx=0;entryDy=0;exitX=1;exitY=0;exitDx=0;exitDy=0;" parent="1" source="hqlPJ9sTbHjb_ISFIXqj-255" target="hqlPJ9sTbHjb_ISFIXqj-254" edge="1">
          <mxGeometry relative="1" as="geometry">
            <mxPoint x="150" y="425" as="sourcePoint" />
            <mxPoint x="175" y="385" as="targetPoint" />
          </mxGeometry>
        </mxCell>
        <mxCell id="hqlPJ9sTbHjb_ISFIXqj-260" value="" style="endArrow=none;html=1;rounded=0;entryX=0;entryY=1;entryDx=0;entryDy=0;exitX=0;exitY=0;exitDx=0;exitDy=0;" parent="1" source="hqlPJ9sTbHjb_ISFIXqj-257" edge="1">
          <mxGeometry relative="1" as="geometry">
            <mxPoint x="245" y="401" as="sourcePoint" />
            <mxPoint x="270" y="345" as="targetPoint" />
          </mxGeometry>
        </mxCell>
        <mxCell id="hqlPJ9sTbHjb_ISFIXqj-261" value="" style="endArrow=none;html=1;rounded=0;exitX=1;exitY=0;exitDx=0;exitDy=0;entryX=0.139;entryY=1.037;entryDx=0;entryDy=0;entryPerimeter=0;" parent="1" source="hqlPJ9sTbHjb_ISFIXqj-256" target="hqlPJ9sTbHjb_ISFIXqj-254" edge="1">
          <mxGeometry relative="1" as="geometry">
            <mxPoint x="165" y="401" as="sourcePoint" />
            <mxPoint x="150" y="355" as="targetPoint" />
          </mxGeometry>
        </mxCell>
        <mxCell id="hqlPJ9sTbHjb_ISFIXqj-262" value="" style="endArrow=none;html=1;rounded=0;exitX=0;exitY=0;exitDx=0;exitDy=0;entryX=0.75;entryY=1;entryDx=0;entryDy=0;" parent="1" source="hqlPJ9sTbHjb_ISFIXqj-258" target="hqlPJ9sTbHjb_ISFIXqj-254" edge="1">
          <mxGeometry relative="1" as="geometry">
            <mxPoint x="125" y="501" as="sourcePoint" />
            <mxPoint x="183" y="355" as="targetPoint" />
          </mxGeometry>
        </mxCell>
        <mxCell id="hqlPJ9sTbHjb_ISFIXqj-263" value="CantidadArticulos" style="ellipse;whiteSpace=wrap;html=1;align=center;" parent="1" vertex="1">
          <mxGeometry x="335" y="355" width="100" height="40" as="geometry" />
        </mxCell>
        <mxCell id="hqlPJ9sTbHjb_ISFIXqj-264" value="" style="endArrow=none;html=1;rounded=0;entryX=1;entryY=0.75;entryDx=0;entryDy=0;exitX=0;exitY=0.5;exitDx=0;exitDy=0;" parent="1" source="hqlPJ9sTbHjb_ISFIXqj-263" target="hqlPJ9sTbHjb_ISFIXqj-254" edge="1">
          <mxGeometry relative="1" as="geometry">
            <mxPoint x="315" y="368" as="sourcePoint" />
            <mxPoint x="300" y="312" as="targetPoint" />
          </mxGeometry>
        </mxCell>
        <mxCell id="hqlPJ9sTbHjb_ISFIXqj-265" value="TipoMovimiento" style="ellipse;whiteSpace=wrap;html=1;align=center;" parent="1" vertex="1">
          <mxGeometry x="-10" y="410" width="100" height="40" as="geometry" />
        </mxCell>
        <mxCell id="hqlPJ9sTbHjb_ISFIXqj-266" value="" style="endArrow=none;html=1;rounded=0;entryX=0;entryY=0.5;entryDx=0;entryDy=0;exitX=1;exitY=0.5;exitDx=0;exitDy=0;" parent="1" source="hqlPJ9sTbHjb_ISFIXqj-265" target="hqlPJ9sTbHjb_ISFIXqj-254" edge="1">
          <mxGeometry relative="1" as="geometry">
            <mxPoint x="45" y="371" as="sourcePoint" />
            <mxPoint x="69" y="315" as="targetPoint" />
          </mxGeometry>
        </mxCell>
        <mxCell id="hqlPJ9sTbHjb_ISFIXqj-267" value="Numplanilla" style="ellipse;whiteSpace=wrap;html=1;align=center;" parent="1" vertex="1">
          <mxGeometry x="35" y="-303.5" width="110" height="40" as="geometry" />
        </mxCell>
        <mxCell id="hqlPJ9sTbHjb_ISFIXqj-268" value="" style="endArrow=none;html=1;rounded=0;exitX=1;exitY=0.5;exitDx=0;exitDy=0;entryX=0.098;entryY=-0.031;entryDx=0;entryDy=0;entryPerimeter=0;" parent="1" source="hqlPJ9sTbHjb_ISFIXqj-267" target="hqlPJ9sTbHjb_ISFIXqj-40" edge="1">
          <mxGeometry relative="1" as="geometry">
            <mxPoint x="175" y="-313.5" as="sourcePoint" />
            <mxPoint x="260" y="-253.5" as="targetPoint" />
          </mxGeometry>
        </mxCell>
        <mxCell id="hqlPJ9sTbHjb_ISFIXqj-269" value="Realiza" style="shape=rhombus;perimeter=rhombusPerimeter;whiteSpace=wrap;html=1;align=center;" parent="1" vertex="1">
          <mxGeometry x="180" y="-66" width="100" height="66.5" as="geometry" />
        </mxCell>
        <mxCell id="hqlPJ9sTbHjb_ISFIXqj-270" value="" style="endArrow=none;html=1;rounded=0;entryX=0.25;entryY=1;entryDx=0;entryDy=0;exitX=0.5;exitY=0;exitDx=0;exitDy=0;" parent="1" source="hqlPJ9sTbHjb_ISFIXqj-269" target="hqlPJ9sTbHjb_ISFIXqj-40" edge="1">
          <mxGeometry relative="1" as="geometry">
            <mxPoint x="230" y="-70" as="sourcePoint" />
            <mxPoint x="160" y="-243.5" as="targetPoint" />
          </mxGeometry>
        </mxCell>
        <mxCell id="hqlPJ9sTbHjb_ISFIXqj-271" value="" style="fontSize=12;html=1;endArrow=ERoneToMany;rounded=0;entryX=0.5;entryY=0;entryDx=0;entryDy=0;exitX=0.5;exitY=1;exitDx=0;exitDy=0;" parent="1" source="hqlPJ9sTbHjb_ISFIXqj-251" target="hqlPJ9sTbHjb_ISFIXqj-243" edge="1">
          <mxGeometry width="100" height="100" relative="1" as="geometry">
            <mxPoint x="-250" y="165.5" as="sourcePoint" />
            <mxPoint x="-250" y="253.5" as="targetPoint" />
            <Array as="points" />
          </mxGeometry>
        </mxCell>
        <mxCell id="hqlPJ9sTbHjb_ISFIXqj-272" value="" style="endArrow=none;html=1;rounded=0;entryX=-0.007;entryY=0.158;entryDx=0;entryDy=0;entryPerimeter=0;exitX=1;exitY=0.5;exitDx=0;exitDy=0;" parent="1" source="hqlPJ9sTbHjb_ISFIXqj-273" target="hqlPJ9sTbHjb_ISFIXqj-40" edge="1">
          <mxGeometry relative="1" as="geometry">
            <mxPoint x="-70" y="-256.1904296875" as="sourcePoint" />
            <mxPoint x="218.5" y="-231.5" as="targetPoint" />
            <Array as="points" />
          </mxGeometry>
        </mxCell>
        <mxCell id="hqlPJ9sTbHjb_ISFIXqj-273" value="Aplica" style="shape=rhombus;perimeter=rhombusPerimeter;whiteSpace=wrap;html=1;align=center;" parent="1" vertex="1">
          <mxGeometry x="-160" y="-263.5" width="120" height="60" as="geometry" />
        </mxCell>
        <mxCell id="hqlPJ9sTbHjb_ISFIXqj-274" value="" style="fontSize=12;html=1;endArrow=ERoneToMany;rounded=0;entryX=1;entryY=0;entryDx=0;entryDy=0;exitX=0;exitY=0.5;exitDx=0;exitDy=0;" parent="1" source="hqlPJ9sTbHjb_ISFIXqj-273" target="hqlPJ9sTbHjb_ISFIXqj-222" edge="1">
          <mxGeometry width="100" height="100" relative="1" as="geometry">
            <mxPoint x="-0.8300000000000125" y="-217.5" as="sourcePoint" />
            <mxPoint x="-0.8300000000000125" y="-129.5" as="targetPoint" />
            <Array as="points" />
          </mxGeometry>
        </mxCell>
        <mxCell id="hqlPJ9sTbHjb_ISFIXqj-277" value="" style="endArrow=none;html=1;rounded=0;exitX=0.5;exitY=1;exitDx=0;exitDy=0;entryX=0.25;entryY=0;entryDx=0;entryDy=0;" parent="1" source="hqlPJ9sTbHjb_ISFIXqj-278" target="hqlPJ9sTbHjb_ISFIXqj-40" edge="1">
          <mxGeometry relative="1" as="geometry">
            <mxPoint x="165" y="-351" as="sourcePoint" />
            <mxPoint x="260" y="-313" as="targetPoint" />
          </mxGeometry>
        </mxCell>
        <mxCell id="hqlPJ9sTbHjb_ISFIXqj-278" value="Realiza" style="shape=rhombus;perimeter=rhombusPerimeter;whiteSpace=wrap;html=1;align=center;" parent="1" vertex="1">
          <mxGeometry x="25" y="-700" width="120" height="60" as="geometry" />
        </mxCell>
        <mxCell id="hqlPJ9sTbHjb_ISFIXqj-279" value="" style="fontSize=12;html=1;endArrow=ERoneToMany;rounded=0;entryX=1;entryY=0.75;entryDx=0;entryDy=0;exitX=0.5;exitY=0;exitDx=0;exitDy=0;" parent="1" source="hqlPJ9sTbHjb_ISFIXqj-220" target="hqlPJ9sTbHjb_ISFIXqj-191" edge="1">
          <mxGeometry width="100" height="100" relative="1" as="geometry">
            <mxPoint x="13" y="-590" as="sourcePoint" />
            <mxPoint x="-207" y="-700" as="targetPoint" />
            <Array as="points">
              <mxPoint x="3" y="-700" />
            </Array>
          </mxGeometry>
        </mxCell>
        <mxCell id="hqlPJ9sTbHjb_ISFIXqj-281" value="Pueden tener" style="shape=rhombus;perimeter=rhombusPerimeter;whiteSpace=wrap;html=1;align=center;" parent="1" vertex="1">
          <mxGeometry x="-45" y="45.5" width="120" height="60" as="geometry" />
        </mxCell>
        <mxCell id="hqlPJ9sTbHjb_ISFIXqj-282" value="" style="fontSize=12;html=1;endArrow=ERoneToMany;rounded=0;exitX=0.5;exitY=0;exitDx=0;exitDy=0;entryX=1;entryY=0.5;entryDx=0;entryDy=0;" parent="1" source="hqlPJ9sTbHjb_ISFIXqj-281" target="hqlPJ9sTbHjb_ISFIXqj-222" edge="1">
          <mxGeometry width="100" height="100" relative="1" as="geometry">
            <mxPoint x="245" y="228" as="sourcePoint" />
            <mxPoint x="-250" y="170" as="targetPoint" />
            <Array as="points">
              <mxPoint x="20" y="-200" />
              <mxPoint x="-100" y="-190" />
            </Array>
          </mxGeometry>
        </mxCell>
        <mxCell id="hqlPJ9sTbHjb_ISFIXqj-284" value="" style="endArrow=none;html=1;rounded=0;entryX=0.5;entryY=1;entryDx=0;entryDy=0;exitX=0;exitY=0;exitDx=0;exitDy=0;" parent="1" source="hqlPJ9sTbHjb_ISFIXqj-254" target="hqlPJ9sTbHjb_ISFIXqj-281" edge="1">
          <mxGeometry relative="1" as="geometry">
            <mxPoint x="50" y="290" as="sourcePoint" />
            <mxPoint y="181" as="targetPoint" />
          </mxGeometry>
        </mxCell>
        <mxCell id="hqlPJ9sTbHjb_ISFIXqj-285" value="Bodega" style="whiteSpace=wrap;html=1;align=center;" parent="1" vertex="1">
          <mxGeometry x="595" y="295" width="100" height="40" as="geometry" />
        </mxCell>
        <mxCell id="hqlPJ9sTbHjb_ISFIXqj-286" value="Codigo" style="ellipse;whiteSpace=wrap;html=1;align=center;" parent="1" vertex="1">
          <mxGeometry x="455" y="365" width="100" height="40" as="geometry" />
        </mxCell>
        <mxCell id="hqlPJ9sTbHjb_ISFIXqj-287" value="Nombre" style="ellipse;whiteSpace=wrap;html=1;align=center;" parent="1" vertex="1">
          <mxGeometry x="605" y="365" width="100" height="40" as="geometry" />
        </mxCell>
        <mxCell id="hqlPJ9sTbHjb_ISFIXqj-288" value="Ubicación" style="ellipse;whiteSpace=wrap;html=1;align=center;" parent="1" vertex="1">
          <mxGeometry x="525" y="425" width="100" height="40" as="geometry" />
        </mxCell>
        <mxCell id="hqlPJ9sTbHjb_ISFIXqj-289" value="Capacidad&lt;div&gt;Toneladas&lt;/div&gt;" style="ellipse;whiteSpace=wrap;html=1;align=center;" parent="1" vertex="1">
          <mxGeometry x="695" y="425" width="100" height="40" as="geometry" />
        </mxCell>
        <mxCell id="hqlPJ9sTbHjb_ISFIXqj-290" value="Espacio&lt;div&gt;cubico&lt;/div&gt;" style="ellipse;whiteSpace=wrap;html=1;align=center;" parent="1" vertex="1">
          <mxGeometry x="740" y="365" width="100" height="40" as="geometry" />
        </mxCell>
        <mxCell id="hqlPJ9sTbHjb_ISFIXqj-291" value="" style="endArrow=none;html=1;rounded=0;entryX=0;entryY=0.5;entryDx=0;entryDy=0;exitX=1;exitY=1;exitDx=0;exitDy=0;" parent="1" source="hqlPJ9sTbHjb_ISFIXqj-285" target="hqlPJ9sTbHjb_ISFIXqj-290" edge="1">
          <mxGeometry relative="1" as="geometry">
            <mxPoint x="690" y="335" as="sourcePoint" />
            <mxPoint x="755" y="381" as="targetPoint" />
          </mxGeometry>
        </mxCell>
        <mxCell id="hqlPJ9sTbHjb_ISFIXqj-292" value="" style="endArrow=none;html=1;rounded=0;entryX=0.578;entryY=0.013;entryDx=0;entryDy=0;exitX=1;exitY=1;exitDx=0;exitDy=0;entryPerimeter=0;" parent="1" target="hqlPJ9sTbHjb_ISFIXqj-289" edge="1">
          <mxGeometry relative="1" as="geometry">
            <mxPoint x="675" y="335" as="sourcePoint" />
            <mxPoint x="735" y="381" as="targetPoint" />
          </mxGeometry>
        </mxCell>
        <mxCell id="hqlPJ9sTbHjb_ISFIXqj-293" value="" style="endArrow=none;html=1;rounded=0;entryX=1;entryY=0;entryDx=0;entryDy=0;exitX=0;exitY=1;exitDx=0;exitDy=0;" parent="1" source="hqlPJ9sTbHjb_ISFIXqj-285" target="hqlPJ9sTbHjb_ISFIXqj-286" edge="1">
          <mxGeometry relative="1" as="geometry">
            <mxPoint x="577.5" y="339" as="sourcePoint" />
            <mxPoint x="592.5" y="375" as="targetPoint" />
          </mxGeometry>
        </mxCell>
        <mxCell id="hqlPJ9sTbHjb_ISFIXqj-294" value="" style="endArrow=none;html=1;rounded=0;entryX=0.5;entryY=0;entryDx=0;entryDy=0;exitX=1;exitY=1;exitDx=0;exitDy=0;" parent="1" target="hqlPJ9sTbHjb_ISFIXqj-287" edge="1">
          <mxGeometry relative="1" as="geometry">
            <mxPoint x="655" y="335" as="sourcePoint" />
            <mxPoint x="670" y="371" as="targetPoint" />
          </mxGeometry>
        </mxCell>
        <mxCell id="hqlPJ9sTbHjb_ISFIXqj-295" value="" style="endArrow=none;html=1;rounded=0;entryX=0.5;entryY=0;entryDx=0;entryDy=0;exitX=1;exitY=1;exitDx=0;exitDy=0;" parent="1" target="hqlPJ9sTbHjb_ISFIXqj-288" edge="1">
          <mxGeometry relative="1" as="geometry">
            <mxPoint x="624.72" y="335" as="sourcePoint" />
            <mxPoint x="624.72" y="365" as="targetPoint" />
          </mxGeometry>
        </mxCell>
        <mxCell id="hqlPJ9sTbHjb_ISFIXqj-296" value="" style="fontSize=12;html=1;endArrow=ERoneToMany;rounded=0;entryX=0.998;entryY=0.4;entryDx=0;entryDy=0;exitX=0;exitY=0.5;exitDx=0;exitDy=0;entryPerimeter=0;" parent="1" source="hqlPJ9sTbHjb_ISFIXqj-297" target="hqlPJ9sTbHjb_ISFIXqj-254" edge="1">
          <mxGeometry width="100" height="100" relative="1" as="geometry">
            <mxPoint x="340" y="313" as="sourcePoint" />
            <mxPoint x="275" y="317" as="targetPoint" />
            <Array as="points" />
          </mxGeometry>
        </mxCell>
        <mxCell id="hqlPJ9sTbHjb_ISFIXqj-297" value="Aplica" style="shape=rhombus;perimeter=rhombusPerimeter;whiteSpace=wrap;html=1;align=center;" parent="1" vertex="1">
          <mxGeometry x="350" y="285" width="120" height="60" as="geometry" />
        </mxCell>
        <mxCell id="hqlPJ9sTbHjb_ISFIXqj-298" value="" style="endArrow=none;html=1;rounded=0;entryX=1;entryY=0.5;entryDx=0;entryDy=0;exitX=0;exitY=0.5;exitDx=0;exitDy=0;" parent="1" source="hqlPJ9sTbHjb_ISFIXqj-285" target="hqlPJ9sTbHjb_ISFIXqj-297" edge="1">
          <mxGeometry relative="1" as="geometry">
            <mxPoint x="555" y="287" as="sourcePoint" />
            <mxPoint x="500" y="323" as="targetPoint" />
          </mxGeometry>
        </mxCell>
        <mxCell id="hqlPJ9sTbHjb_ISFIXqj-299" value="Familias" style="whiteSpace=wrap;html=1;align=center;" parent="1" vertex="1">
          <mxGeometry x="1150" y="395" width="100" height="30" as="geometry" />
        </mxCell>
        <mxCell id="hqlPJ9sTbHjb_ISFIXqj-300" value="" style="endArrow=none;html=1;rounded=0;entryX=0;entryY=1;entryDx=0;entryDy=0;exitX=1;exitY=0;exitDx=0;exitDy=0;" parent="1" source="hqlPJ9sTbHjb_ISFIXqj-321" target="hqlPJ9sTbHjb_ISFIXqj-299" edge="1">
          <mxGeometry relative="1" as="geometry">
            <mxPoint x="1105.167781520296" y="470.78323725775226" as="sourcePoint" />
            <mxPoint x="1230" y="535" as="targetPoint" />
          </mxGeometry>
        </mxCell>
        <mxCell id="hqlPJ9sTbHjb_ISFIXqj-301" value="" style="endArrow=none;html=1;rounded=0;entryX=1;entryY=1;entryDx=0;entryDy=0;exitX=0.054;exitY=0.302;exitDx=0;exitDy=0;exitPerimeter=0;" parent="1" source="hqlPJ9sTbHjb_ISFIXqj-324" target="hqlPJ9sTbHjb_ISFIXqj-299" edge="1">
          <mxGeometry relative="1" as="geometry">
            <mxPoint x="1280" y="465" as="sourcePoint" />
            <mxPoint x="1265" y="439" as="targetPoint" />
            <Array as="points">
              <mxPoint x="1270" y="455" />
            </Array>
          </mxGeometry>
        </mxCell>
        <mxCell id="hqlPJ9sTbHjb_ISFIXqj-302" value="" style="endArrow=none;html=1;rounded=0;entryX=1;entryY=1;entryDx=0;entryDy=0;exitX=1;exitY=0;exitDx=0;exitDy=0;" parent="1" source="hqlPJ9sTbHjb_ISFIXqj-322" edge="1">
          <mxGeometry relative="1" as="geometry">
            <mxPoint x="1105.167781520296" y="540.7832372577523" as="sourcePoint" />
            <mxPoint x="1160" y="425" as="targetPoint" />
          </mxGeometry>
        </mxCell>
        <mxCell id="hqlPJ9sTbHjb_ISFIXqj-303" value="" style="endArrow=none;html=1;rounded=0;exitX=0;exitY=0;exitDx=0;exitDy=0;entryX=0.856;entryY=0.958;entryDx=0;entryDy=0;entryPerimeter=0;" parent="1" source="hqlPJ9sTbHjb_ISFIXqj-323" target="hqlPJ9sTbHjb_ISFIXqj-299" edge="1">
          <mxGeometry relative="1" as="geometry">
            <mxPoint x="1280.1999999999994" y="539" as="sourcePoint" />
            <mxPoint x="1225" y="425" as="targetPoint" />
          </mxGeometry>
        </mxCell>
        <mxCell id="hqlPJ9sTbHjb_ISFIXqj-304" value="Articulo" style="whiteSpace=wrap;html=1;align=center;" parent="1" vertex="1">
          <mxGeometry x="1150" y="99.5" width="100" height="40" as="geometry" />
        </mxCell>
        <mxCell id="hqlPJ9sTbHjb_ISFIXqj-305" value="NombreArticulo" style="ellipse;whiteSpace=wrap;html=1;align=center;" parent="1" vertex="1">
          <mxGeometry x="1040" y="325" width="100" height="40" as="geometry" />
        </mxCell>
        <mxCell id="hqlPJ9sTbHjb_ISFIXqj-306" value="CodigoArticulo" style="ellipse;whiteSpace=wrap;html=1;align=center;" parent="1" vertex="1">
          <mxGeometry x="1290" y="349.5" width="100" height="40" as="geometry" />
        </mxCell>
        <mxCell id="hqlPJ9sTbHjb_ISFIXqj-307" value="Activo" style="ellipse;whiteSpace=wrap;html=1;align=center;" parent="1" vertex="1">
          <mxGeometry x="1290" y="279.5" width="100" height="40" as="geometry" />
        </mxCell>
        <mxCell id="hqlPJ9sTbHjb_ISFIXqj-308" value="Descripcion" style="ellipse;whiteSpace=wrap;html=1;align=center;" parent="1" vertex="1">
          <mxGeometry x="1290" y="219.5" width="100" height="40" as="geometry" />
        </mxCell>
        <mxCell id="hqlPJ9sTbHjb_ISFIXqj-309" value="FamiliaArticulo" style="ellipse;whiteSpace=wrap;html=1;align=center;" parent="1" vertex="1">
          <mxGeometry x="1000" y="279.5" width="100" height="40" as="geometry" />
        </mxCell>
        <mxCell id="hqlPJ9sTbHjb_ISFIXqj-310" value="Peso" style="ellipse;whiteSpace=wrap;html=1;align=center;" parent="1" vertex="1">
          <mxGeometry x="1290" y="159.5" width="100" height="40" as="geometry" />
        </mxCell>
        <mxCell id="hqlPJ9sTbHjb_ISFIXqj-311" value="Costo" style="ellipse;whiteSpace=wrap;html=1;align=center;" parent="1" vertex="1">
          <mxGeometry x="1010" y="159.5" width="100" height="40" as="geometry" />
        </mxCell>
        <mxCell id="hqlPJ9sTbHjb_ISFIXqj-312" value="PrecioEstandar" style="ellipse;whiteSpace=wrap;html=1;align=center;" parent="1" vertex="1">
          <mxGeometry x="1010" y="219.5" width="100" height="40" as="geometry" />
        </mxCell>
        <mxCell id="hqlPJ9sTbHjb_ISFIXqj-313" value="" style="endArrow=none;html=1;rounded=0;entryX=1;entryY=1;entryDx=0;entryDy=0;" parent="1" source="hqlPJ9sTbHjb_ISFIXqj-311" edge="1">
          <mxGeometry relative="1" as="geometry">
            <mxPoint x="1095" y="255.5" as="sourcePoint" />
            <mxPoint x="1150" y="139.5" as="targetPoint" />
          </mxGeometry>
        </mxCell>
        <mxCell id="hqlPJ9sTbHjb_ISFIXqj-314" value="" style="endArrow=none;html=1;rounded=0;entryX=0;entryY=0;entryDx=0;entryDy=0;exitX=1;exitY=1;exitDx=0;exitDy=0;" parent="1" source="hqlPJ9sTbHjb_ISFIXqj-304" target="hqlPJ9sTbHjb_ISFIXqj-310" edge="1">
          <mxGeometry relative="1" as="geometry">
            <mxPoint x="1243" y="174.5" as="sourcePoint" />
            <mxPoint x="1300" y="149.5" as="targetPoint" />
          </mxGeometry>
        </mxCell>
        <mxCell id="hqlPJ9sTbHjb_ISFIXqj-315" value="" style="endArrow=none;html=1;rounded=0;entryX=1;entryY=1;entryDx=0;entryDy=0;" parent="1" source="hqlPJ9sTbHjb_ISFIXqj-312" edge="1">
          <mxGeometry relative="1" as="geometry">
            <mxPoint x="1110" y="164.5" as="sourcePoint" />
            <mxPoint x="1167" y="139.5" as="targetPoint" />
          </mxGeometry>
        </mxCell>
        <mxCell id="hqlPJ9sTbHjb_ISFIXqj-316" value="" style="endArrow=none;html=1;rounded=0;entryX=0;entryY=0;entryDx=0;entryDy=0;exitX=1;exitY=1;exitDx=0;exitDy=0;" parent="1" target="hqlPJ9sTbHjb_ISFIXqj-308" edge="1">
          <mxGeometry relative="1" as="geometry">
            <mxPoint x="1235" y="139.5" as="sourcePoint" />
            <mxPoint x="1290" y="165.5" as="targetPoint" />
          </mxGeometry>
        </mxCell>
        <mxCell id="hqlPJ9sTbHjb_ISFIXqj-317" value="" style="endArrow=none;html=1;rounded=0;entryX=0.25;entryY=1;entryDx=0;entryDy=0;exitX=1;exitY=0;exitDx=0;exitDy=0;" parent="1" source="hqlPJ9sTbHjb_ISFIXqj-309" target="hqlPJ9sTbHjb_ISFIXqj-304" edge="1">
          <mxGeometry relative="1" as="geometry">
            <mxPoint x="1090" y="231.5" as="sourcePoint" />
            <mxPoint x="1177" y="149.5" as="targetPoint" />
          </mxGeometry>
        </mxCell>
        <mxCell id="hqlPJ9sTbHjb_ISFIXqj-318" value="" style="endArrow=none;html=1;rounded=0;entryX=0.25;entryY=1;entryDx=0;entryDy=0;exitX=0;exitY=0;exitDx=0;exitDy=0;" parent="1" source="hqlPJ9sTbHjb_ISFIXqj-307" edge="1">
          <mxGeometry relative="1" as="geometry">
            <mxPoint x="1150" y="295.5" as="sourcePoint" />
            <mxPoint x="1230" y="139.5" as="targetPoint" />
          </mxGeometry>
        </mxCell>
        <mxCell id="hqlPJ9sTbHjb_ISFIXqj-319" value="" style="endArrow=none;html=1;rounded=0;entryX=0.25;entryY=1;entryDx=0;entryDy=0;exitX=1;exitY=0;exitDx=0;exitDy=0;" parent="1" source="hqlPJ9sTbHjb_ISFIXqj-305" edge="1">
          <mxGeometry relative="1" as="geometry">
            <mxPoint x="1110" y="295.5" as="sourcePoint" />
            <mxPoint x="1190" y="139.5" as="targetPoint" />
            <Array as="points" />
          </mxGeometry>
        </mxCell>
        <mxCell id="hqlPJ9sTbHjb_ISFIXqj-320" value="" style="endArrow=none;html=1;rounded=0;entryX=0.25;entryY=1;entryDx=0;entryDy=0;exitX=0;exitY=0;exitDx=0;exitDy=0;" parent="1" source="hqlPJ9sTbHjb_ISFIXqj-306" edge="1">
          <mxGeometry relative="1" as="geometry">
            <mxPoint x="1120" y="355.5" as="sourcePoint" />
            <mxPoint x="1215" y="139.5" as="targetPoint" />
            <Array as="points" />
          </mxGeometry>
        </mxCell>
        <mxCell id="hqlPJ9sTbHjb_ISFIXqj-321" value="CodigoFamilia" style="ellipse;whiteSpace=wrap;html=1;align=center;" parent="1" vertex="1">
          <mxGeometry x="1010" y="465" width="100" height="40" as="geometry" />
        </mxCell>
        <mxCell id="hqlPJ9sTbHjb_ISFIXqj-322" value="NombreFamilia" style="ellipse;whiteSpace=wrap;html=1;align=center;" parent="1" vertex="1">
          <mxGeometry x="1010" y="535" width="100" height="40" as="geometry" />
        </mxCell>
        <mxCell id="hqlPJ9sTbHjb_ISFIXqj-323" value="Activo" style="ellipse;whiteSpace=wrap;html=1;align=center;" parent="1" vertex="1">
          <mxGeometry x="1290" y="555" width="100" height="40" as="geometry" />
        </mxCell>
        <mxCell id="hqlPJ9sTbHjb_ISFIXqj-324" value="Descripcion" style="ellipse;whiteSpace=wrap;html=1;align=center;" parent="1" vertex="1">
          <mxGeometry x="1280" y="465" width="100" height="40" as="geometry" />
        </mxCell>
        <mxCell id="hqlPJ9sTbHjb_ISFIXqj-325" value="" style="fontSize=12;html=1;endArrow=ERoneToMany;rounded=0;entryX=0.5;entryY=1;entryDx=0;entryDy=0;exitX=0.5;exitY=0;exitDx=0;exitDy=0;" parent="1" source="hqlPJ9sTbHjb_ISFIXqj-326" target="hqlPJ9sTbHjb_ISFIXqj-304" edge="1">
          <mxGeometry width="100" height="100" relative="1" as="geometry">
            <mxPoint x="1190" y="220" as="sourcePoint" />
            <mxPoint x="795" y="-352.833251953125" as="targetPoint" />
            <Array as="points" />
          </mxGeometry>
        </mxCell>
        <mxCell id="hqlPJ9sTbHjb_ISFIXqj-326" value="Pertenecen a" style="shape=rhombus;perimeter=rhombusPerimeter;whiteSpace=wrap;html=1;align=center;" parent="1" vertex="1">
          <mxGeometry x="1140" y="275" width="120" height="60" as="geometry" />
        </mxCell>
        <mxCell id="hqlPJ9sTbHjb_ISFIXqj-327" value="" style="endArrow=none;html=1;rounded=0;entryX=0.5;entryY=1;entryDx=0;entryDy=0;exitX=0.5;exitY=0;exitDx=0;exitDy=0;" parent="1" source="hqlPJ9sTbHjb_ISFIXqj-299" target="hqlPJ9sTbHjb_ISFIXqj-326" edge="1">
          <mxGeometry relative="1" as="geometry">
            <mxPoint x="1460" y="490" as="sourcePoint" />
            <mxPoint x="1420" y="379.5" as="targetPoint" />
            <Array as="points" />
          </mxGeometry>
        </mxCell>
        <mxCell id="hqlPJ9sTbHjb_ISFIXqj-328" value="Se asocia" style="shape=rhombus;perimeter=rhombusPerimeter;whiteSpace=wrap;html=1;align=center;" parent="1" vertex="1">
          <mxGeometry x="-95" y="199.5" width="120" height="60" as="geometry" />
        </mxCell>
        <mxCell id="hqlPJ9sTbHjb_ISFIXqj-329" value="" style="endArrow=none;html=1;rounded=0;entryX=1;entryY=0;entryDx=0;entryDy=0;exitX=0;exitY=0.5;exitDx=0;exitDy=0;" parent="1" source="hqlPJ9sTbHjb_ISFIXqj-328" target="hqlPJ9sTbHjb_ISFIXqj-243" edge="1">
          <mxGeometry relative="1" as="geometry">
            <mxPoint x="-110" y="235" as="sourcePoint" />
            <mxPoint x="-42.5" y="225.5" as="targetPoint" />
          </mxGeometry>
        </mxCell>
        <mxCell id="hqlPJ9sTbHjb_ISFIXqj-330" value="" style="fontSize=12;html=1;endArrow=ERoneToMany;rounded=0;entryX=0;entryY=0.25;entryDx=0;entryDy=0;exitX=1;exitY=0.5;exitDx=0;exitDy=0;" parent="1" source="hqlPJ9sTbHjb_ISFIXqj-328" target="hqlPJ9sTbHjb_ISFIXqj-254" edge="1">
          <mxGeometry width="100" height="100" relative="1" as="geometry">
            <mxPoint x="75" y="285" as="sourcePoint" />
            <mxPoint x="-5" y="285" as="targetPoint" />
            <Array as="points" />
          </mxGeometry>
        </mxCell>
        <mxCell id="hqlPJ9sTbHjb_ISFIXqj-332" value="" style="fontSize=12;html=1;endArrow=ERoneToMany;rounded=0;entryX=1;entryY=0.5;entryDx=0;entryDy=0;exitX=0;exitY=0.5;exitDx=0;exitDy=0;" parent="1" source="hqlPJ9sTbHjb_ISFIXqj-333" target="hqlPJ9sTbHjb_ISFIXqj-285" edge="1">
          <mxGeometry width="100" height="100" relative="1" as="geometry">
            <mxPoint x="830" y="330" as="sourcePoint" />
            <mxPoint x="770" y="294" as="targetPoint" />
            <Array as="points" />
          </mxGeometry>
        </mxCell>
        <mxCell id="hqlPJ9sTbHjb_ISFIXqj-333" value="Se relaciona" style="shape=rhombus;perimeter=rhombusPerimeter;whiteSpace=wrap;html=1;align=center;" parent="1" vertex="1">
          <mxGeometry x="805" y="315" width="120" height="60" as="geometry" />
        </mxCell>
        <mxCell id="hqlPJ9sTbHjb_ISFIXqj-334" value="" style="fontSize=12;html=1;endArrow=ERoneToMany;rounded=0;entryX=0;entryY=0.5;entryDx=0;entryDy=0;exitX=1;exitY=0.5;exitDx=0;exitDy=0;" parent="1" source="hqlPJ9sTbHjb_ISFIXqj-333" target="hqlPJ9sTbHjb_ISFIXqj-299" edge="1">
          <mxGeometry width="100" height="100" relative="1" as="geometry">
            <mxPoint x="1105" y="445" as="sourcePoint" />
            <mxPoint x="950" y="425" as="targetPoint" />
            <Array as="points" />
          </mxGeometry>
        </mxCell>
        <mxCell id="hqlPJ9sTbHjb_ISFIXqj-341" value="Se asocia" style="shape=rhombus;perimeter=rhombusPerimeter;whiteSpace=wrap;html=1;align=center;" parent="1" vertex="1">
          <mxGeometry x="-157.5" y="135.5" width="120" height="60" as="geometry" />
        </mxCell>
        <mxCell id="hqlPJ9sTbHjb_ISFIXqj-342" value="" style="endArrow=none;html=1;rounded=0;entryX=1;entryY=0.5;entryDx=0;entryDy=0;exitX=0;exitY=0;exitDx=0;exitDy=0;" parent="1" source="hqlPJ9sTbHjb_ISFIXqj-285" target="hqlPJ9sTbHjb_ISFIXqj-341" edge="1">
          <mxGeometry relative="1" as="geometry">
            <mxPoint x="567.5" y="275" as="sourcePoint" />
            <mxPoint x="442.5" y="275" as="targetPoint" />
          </mxGeometry>
        </mxCell>
        <mxCell id="hqlPJ9sTbHjb_ISFIXqj-343" value="" style="fontSize=12;html=1;endArrow=ERoneToMany;rounded=0;entryX=0.855;entryY=-0.029;entryDx=0;entryDy=0;entryPerimeter=0;exitX=0;exitY=0.5;exitDx=0;exitDy=0;" parent="1" source="hqlPJ9sTbHjb_ISFIXqj-341" target="hqlPJ9sTbHjb_ISFIXqj-243" edge="1">
          <mxGeometry width="100" height="100" relative="1" as="geometry">
            <mxPoint x="-170" y="170" as="sourcePoint" />
            <mxPoint x="-195" y="240" as="targetPoint" />
            <Array as="points" />
          </mxGeometry>
        </mxCell>
        <mxCell id="hqlPJ9sTbHjb_ISFIXqj-344" value="Cotizacion" style="ellipse;whiteSpace=wrap;html=1;align=center;" parent="1" vertex="1">
          <mxGeometry x="-460" y="-210" width="100" height="40" as="geometry" />
        </mxCell>
        <mxCell id="hqlPJ9sTbHjb_ISFIXqj-345" value="" style="endArrow=none;html=1;rounded=0;entryX=0;entryY=0.75;entryDx=0;entryDy=0;exitX=1;exitY=0.5;exitDx=0;exitDy=0;" parent="1" source="hqlPJ9sTbHjb_ISFIXqj-344" target="hqlPJ9sTbHjb_ISFIXqj-222" edge="1">
          <mxGeometry relative="1" as="geometry">
            <mxPoint x="-357.5" y="-163.5" as="sourcePoint" />
            <mxPoint x="-342.5" y="-208.5" as="targetPoint" />
          </mxGeometry>
        </mxCell>
        <mxCell id="hqlPJ9sTbHjb_ISFIXqj-346" value="Agregado" style="text;strokeColor=none;align=center;fillColor=none;html=1;verticalAlign=middle;whiteSpace=wrap;rounded=0;" parent="1" vertex="1">
          <mxGeometry x="-442.5" y="-240" width="60" height="30" as="geometry" />
        </mxCell>
        <mxCell id="hqlPJ9sTbHjb_ISFIXqj-347" value="Contiene" style="shape=rhombus;perimeter=rhombusPerimeter;whiteSpace=wrap;html=1;align=center;" parent="1" vertex="1">
          <mxGeometry x="-570" y="-138.5" width="120" height="60" as="geometry" />
        </mxCell>
        <mxCell id="hqlPJ9sTbHjb_ISFIXqj-350" value="" style="fontSize=12;html=1;endArrow=ERoneToMany;rounded=0;entryX=0;entryY=0.5;entryDx=0;entryDy=0;exitX=0.5;exitY=1;exitDx=0;exitDy=0;" parent="1" source="hqlPJ9sTbHjb_ISFIXqj-347" target="hqlPJ9sTbHjb_ISFIXqj-243" edge="1">
          <mxGeometry width="100" height="100" relative="1" as="geometry">
            <mxPoint x="-511.25" y="155.5" as="sourcePoint" />
            <mxPoint x="-511.25" y="234.5" as="targetPoint" />
            <Array as="points">
              <mxPoint x="-510" y="260" />
            </Array>
          </mxGeometry>
        </mxCell>
        <mxCell id="hqlPJ9sTbHjb_ISFIXqj-351" value="" style="endArrow=none;html=1;rounded=0;exitX=0.5;exitY=0;exitDx=0;exitDy=0;entryX=0;entryY=0.25;entryDx=0;entryDy=0;" parent="1" source="hqlPJ9sTbHjb_ISFIXqj-347" target="hqlPJ9sTbHjb_ISFIXqj-191" edge="1">
          <mxGeometry relative="1" as="geometry">
            <mxPoint x="-508.75" y="95.5" as="sourcePoint" />
            <mxPoint x="-316.25" y="-724" as="targetPoint" />
            <Array as="points">
              <mxPoint x="-500" y="-720" />
            </Array>
          </mxGeometry>
        </mxCell>
        <mxCell id="hqlPJ9sTbHjb_ISFIXqj-352" value="Agregado" style="text;html=1;align=center;verticalAlign=middle;resizable=0;points=[];autosize=1;strokeColor=none;fillColor=none;" parent="1" vertex="1">
          <mxGeometry x="-340" y="388" width="80" height="30" as="geometry" />
        </mxCell>
        <mxCell id="hqlPJ9sTbHjb_ISFIXqj-353" value="Cotizacion" style="ellipse;whiteSpace=wrap;html=1;align=center;" parent="1" vertex="1">
          <mxGeometry x="-500" y="275" width="100" height="40" as="geometry" />
        </mxCell>
        <mxCell id="hqlPJ9sTbHjb_ISFIXqj-355" value="" style="endArrow=none;html=1;rounded=0;exitX=1;exitY=0.5;exitDx=0;exitDy=0;entryX=0;entryY=0.75;entryDx=0;entryDy=0;" parent="1" source="hqlPJ9sTbHjb_ISFIXqj-353" target="hqlPJ9sTbHjb_ISFIXqj-243" edge="1">
          <mxGeometry relative="1" as="geometry">
            <mxPoint x="-375" y="305" as="sourcePoint" />
            <mxPoint x="-350" y="275" as="targetPoint" />
          </mxGeometry>
        </mxCell>
        <mxCell id="hqlPJ9sTbHjb_ISFIXqj-356" value="Este creo que no va aqui" style="text;html=1;align=center;verticalAlign=middle;resizable=0;points=[];autosize=1;strokeColor=none;fillColor=none;" parent="1" vertex="1">
          <mxGeometry x="-120" y="-790" width="160" height="30" as="geometry" />
        </mxCell>
      </root>
    </mxGraphModel>
  </diagram>
</mxfile>
